<svg xmlns="http://www.w3.org/2000/svg" aria-hidden="true" style="position:absolute;width:0;height:0;overflow:hidden"><defs><symbol id="icon-logo6" viewBox="0 0 22 12"><path d="M11.471 5.881a.633.633 0 0 1-.13-.427v-.619c0-.19.043-.334.129-.433s.234-.148.444-.147c.197 0 .337.042.42.126.09.107.134.238.124.37v.145h-.352v-.147a.775.775 0 0 0-.01-.144.142.142 0 0 0-.05-.086.202.202 0 0 0-.128-.033.215.215 0 0 0-.134.035.16.16 0 0 0-.058.094.72.72 0 0 0-.014.153v.751a.383.383 0 0 0 .045.211c.018.022.042.04.07.051s.06.015.091.012a.194.194 0 0 0 .125-.034.156.156 0 0 0 .053-.091c.008-.05.012-.1.011-.15v-.152h.352v.139a.566.566 0 0 1-.122.389c-.081.092-.219.138-.422.138s-.356-.049-.443-.151zM12.938 5.887c-.089-.096-.133-.237-.133-.422v-.651c0-.184.045-.323.133-.417s.238-.141.447-.141c.207 0 .355.047.444.141s.134.234.134.417v.651c0 .184-.045.325-.136.422s-.238.145-.443.145-.357-.049-.447-.145zm.61-.156a.362.362 0 0 0 .042-.193v-.797a.35.35 0 0 0-.042-.189c-.018-.023-.043-.041-.072-.052s-.061-.015-.093-.011c-.032-.004-.064 0-.093.011s-.054.029-.072.052a.34.34 0 0 0-.042.189v.801a.366.366 0 0 0 .042.193.23.23 0 0 0 .165.065.253.253 0 0 0 .091-.017.206.206 0 0 0 .074-.048v-.004zM14.387 4.274h.379l.285 1.201.292-1.201h.369l.037 1.734h-.273l-.029-1.205-.282 1.205h-.219l-.292-1.209-.027 1.209h-.276l.034-1.734zM16.175 4.274h.591c.34 0 .511.164.511.492 0 .314-.179.471-.538.471h-.201v.771h-.365l.002-1.734zm.505.741c.036.004.073.001.107-.008s.066-.025.093-.046a.285.285 0 0 0 .053-.196.52.52 0 0 0-.018-.157c-.005-.017-.014-.033-.027-.048s-.028-.026-.046-.035a.392.392 0 0 0-.163-.028h-.142v.518h.142zM17.803 4.274h.392l.402 1.734h-.34l-.08-.4h-.349l-.082.4h-.345l.402-1.734zm.334 1.133-.136-.728-.136.728h.273zM18.921 4.274h.255l.489.989v-.989h.303v1.734h-.243l-.492-1.032v1.032h-.313l.001-1.734zM20.677 5.347l-.406-1.07h.342l.248.687.233-.687h.335l-.401 1.07v.661h-.35v-.661zM12.034 6.766v.091h-.298v.704h-.125v-.704h-.299v-.091h.722zM12.967 7.561h-.096c-.01.001-.019-.002-.027-.008s-.013-.011-.016-.018l-.086-.189h-.413l-.086.189a.046.046 0 0 1-.013.021.05.05 0 0 1-.027.008h-.096l.365-.795h.127l.369.792zm-.604-.295h.344l-.146-.324a.478.478 0 0 1-.027-.075l-.014.042-.013.033-.144.323zM13.596 7.483a.54.54 0 0 0 .127-.009l.053-.014.049-.02v-.179h-.146l-.011-.001c-.004-.001-.006-.003-.009-.005l-.006-.007c-.002-.003-.002-.005-.002-.008v-.061h.283v.305a.63.63 0 0 1-.154.065.56.56 0 0 1-.091.016 1.257 1.257 0 0 1-.107.005.572.572 0 0 1-.184-.03.447.447 0 0 1-.146-.083.369.369 0 0 1-.128-.291.369.369 0 0 1 .127-.292.419.419 0 0 1 .146-.082.642.642 0 0 1 .457.028.346.346 0 0 1 .063.042l-.035.049c-.003.004-.007.008-.012.011s-.011.004-.017.004a.046.046 0 0 1-.023-.006.32.32 0 0 1-.036-.019c-.016-.008-.032-.016-.049-.021a.509.509 0 0 0-.067-.018.582.582 0 0 0-.093-.007.447.447 0 0 0-.141.022.288.288 0 0 0-.175.162.367.367 0 0 0 0 .265.31.31 0 0 0 .18.163.412.412 0 0 0 .144.016zM14.759 7.47h.398v.091h-.52v-.795h.125l-.003.704zM15.572 7.561h-.125v-.795h.125v.795zM16.036 6.77a.094.094 0 0 1 .019.014l.533.599v-.621h.109v.798h-.063c-.009.001-.019-.001-.027-.004s-.014-.009-.02-.015l-.533-.599v.619h-.104v-.795h.065c.007 0 .014.001.02.004zM17.615 6.766v.088h-.442v.263h.358v.084h-.358v.271h.442v.087h-.571v-.793h.571zM4.542 1.855l5.54 1.357v4.756l-5.54-1.357V1.854zm-.355-.405v5.393l6.25 1.532V2.982L4.187 1.45z"/><path d="m7.536 10.879-6.25-1.533V3.953l6.25 1.532v5.393z"/><path d="m4.29 1.794 5.467 1.34-2.325 2.007L1.964 3.8 4.29 1.794zm-.104-.344L1.285 3.953l6.25 1.532 2.9-2.503-6.25-1.532zM7.888 10.575l2.548-2.2-2.548-.625v2.825z"/></symbol><symbol id="icon-logo5" viewBox="0 0 22 12"><path d="M5.741 9.509a.297.297 0 0 1 .079.207c.003.049-.007.098-.028.144s-.054.086-.094.118a.583.583 0 0 1-.357.096h-.627V8.76h.614a.574.574 0 0 1 .34.087c.04.03.071.068.092.11s.03.089.027.136a.286.286 0 0 1-.071.201.346.346 0 0 1-.187.103.37.37 0 0 1 .212.112zm-.735-.199h.262a.27.27 0 0 0 .167-.044c.02-.016.035-.036.045-.058s.014-.046.012-.07c.002-.024-.002-.048-.012-.07s-.025-.042-.044-.059a.27.27 0 0 0-.172-.044h-.258v.345zm.455.504a.154.154 0 0 0 .062-.133c.002-.025-.003-.051-.014-.074s-.028-.044-.049-.061a.297.297 0 0 0-.178-.048h-.275v.361h.279a.298.298 0 0 0 .176-.046zM6.996 10.073l-.342-.514h-.128v.514h-.294V8.759h.556a.585.585 0 0 1 .387.112c.078.071.125.165.132.265s-.025.199-.091.279a.468.468 0 0 1-.265.134l.364.525h-.319zm-.47-.692h.24c.167 0 .25-.066.25-.199a.185.185 0 0 0-.061-.148.28.28 0 0 0-.189-.053h-.243l.003.4zM8.602 9.809h-.585l-.103.264h-.308l.538-1.299h.333l.536 1.299h-.308l-.101-.264zm-.078-.199-.214-.555-.214.555h.428zM10.612 10.073h-.292l-.654-.894v.894h-.291V8.759h.291l.654.899v-.899h.292v1.314zM12.276 9.759a.604.604 0 0 1-.264.232.941.941 0 0 1-.41.083h-.519V8.76h.519a.954.954 0 0 1 .41.081.598.598 0 0 1 .264.229.703.703 0 0 1 0 .69zm-.333-.032c.083-.087.129-.199.129-.314s-.046-.226-.129-.314a.548.548 0 0 0-.365-.112h-.202v.851h.202a.542.542 0 0 0 .365-.112zM8.785 1.45s3.764 1.279 3.684 3.131v3.131s-3.761-1.28-3.683-3.131L8.785 1.45zM15.823 6.979a5.524 5.524 0 0 1 2.392-.793v-.98c-.989.343-1.828.965-2.392 1.774z"/><path d="M15.395 7.275c.582-1.055 1.591-1.869 2.819-2.274V2.176s-5.361 1.823-5.248 4.459v4.458s.239-.082.615-.234c0-.143 0-.286.017-.431.111-1.224.757-2.358 1.797-3.153z"/><path d="M14.886 8.931c.028-.309.091-.615.188-.913a4.1 4.1 0 0 0-1.121 2.436 3.589 3.589 0 0 0-.014.257 16.66 16.66 0 0 0 1.031-.489 4.152 4.152 0 0 1-.083-1.291zM15.099 8.947a3.99 3.99 0 0 0 .066 1.169c1.465-.789 3.11-2.008 3.047-3.481v-.128a5.053 5.053 0 0 0-2.787 1.172 4.055 4.055 0 0 0-.327 1.269z"/></symbol><symbol id="icon-logo4" viewBox="0 0 22 12"><path d="M5.16 4.611h-.001c-.511 0-.926.374-.926.835v.001c0 .461.414.835.926.835h.001c.511 0 .926-.374.926-.835v-.001c0-.461-.414-.835-.926-.835zM11.992 4.344c-.001-.64-.284-1.254-.786-1.706s-1.182-.708-1.893-.709c-.71.001-1.391.256-1.893.709s-.785 1.067-.787 1.707v3.53s5.358-.538 5.358-3.53v-.001zM2.357 9.033c.001.445.198.872.547 1.187s.823.493 1.317.494c.494-.001.967-.179 1.316-.494s.546-.742.548-1.187V6.577s-3.728.375-3.728 2.456zm1.864.44c-.097 0-.191-.026-.271-.074s-.143-.117-.18-.198-.047-.169-.028-.254c.019-.085.065-.164.134-.225s.155-.103.25-.12.193-.008.282.025.165.09.219.162a.405.405 0 0 1 .045.413.483.483 0 0 1-.265.239.543.543 0 0 1-.187.034v-.002zM7.63 8.682v.914h-.188v-.914h.188zm.365.39v.147h-.416v-.147h.416zm.044-.39v.148h-.46v-.148h.46zm.86.435v.043c0 .069-.009.132-.028.187s-.045.102-.08.141c-.034.039-.075.068-.123.089s-.1.031-.158.031c-.057 0-.11-.01-.158-.031s-.088-.05-.123-.089c-.035-.039-.062-.086-.081-.141s-.028-.118-.028-.187v-.043c0-.07.009-.132.028-.187s.045-.102.08-.141c.035-.039.076-.069.123-.089s.1-.031.158-.031c.058 0 .11.01.158.031s.089.05.123.089c.035.039.062.086.08.141s.029.117.029.187zm-.191.044v-.045c0-.049-.004-.091-.013-.128s-.022-.068-.039-.093-.038-.044-.063-.057c-.025-.013-.053-.019-.085-.019s-.06.006-.085.019c-.024.013-.045.031-.062.057s-.03.056-.038.093a.548.548 0 0 0-.013.128v.045c0 .048.004.091.013.128s.022.068.039.094c.017.025.038.044.063.057s.053.019.085.019c.032 0 .06-.006.085-.019s.045-.032.062-.057c.017-.026.03-.057.038-.094s.013-.08.013-.128zm.802.196c0-.016-.003-.031-.008-.044s-.013-.026-.026-.036c-.013-.011-.031-.022-.055-.033s-.054-.022-.091-.034c-.041-.013-.081-.028-.118-.045s-.069-.036-.098-.058c-.028-.023-.05-.049-.067-.078s-.024-.064-.024-.104c0-.038.008-.073.025-.104s.04-.058.07-.08c.03-.023.066-.04.107-.052a.486.486 0 0 1 .312.018c.05.024.089.058.117.1a.257.257 0 0 1 .042.145h-.187c0-.027-.006-.05-.017-.07s-.028-.037-.05-.048a.174.174 0 0 0-.084-.018c-.033 0-.06.005-.082.015s-.038.023-.049.04a.096.096 0 0 0-.005.097c.007.012.02.024.035.035s.035.021.057.031a.77.77 0 0 0 .078.028c.05.015.094.032.131.051s.07.04.095.063a.225.225 0 0 1 .077.181c0 .04-.008.075-.023.107s-.038.058-.067.08c-.029.022-.064.038-.105.05s-.086.017-.136.017c-.045 0-.09-.006-.134-.018s-.084-.03-.12-.055a.262.262 0 0 1-.117-.227h.189c0 .028.004.053.013.072s.021.036.037.048c.016.012.036.021.058.026s.047.008.074.008c.033 0 .059-.005.08-.014s.037-.022.047-.038a.104.104 0 0 0 .016-.055zm.725-.675v.914h-.188v-.914h.188zm.281 0v.148H9.77v-.148h.746zm.721.767v.147h-.487v-.147h.487zm-.425-.767v.914h-.188v-.914h.188zm.362.372v.143h-.423v-.143h.423zm.062-.372v.148h-.486v-.148h.486zm.111 0h.341c.07 0 .13.01.18.031s.09.052.117.093.041.091.041.151c0 .049-.008.091-.025.126s-.04.064-.07.087a.373.373 0 0 1-.105.055l-.06.031h-.296l-.001-.147h.22c.033 0 .06-.006.082-.018s.038-.028.049-.049a.154.154 0 0 0 .017-.073c0-.029-.005-.055-.016-.076s-.027-.038-.05-.049-.05-.017-.083-.017h-.153v.767h-.188V8.68zm.511.914-.208-.407.199-.001.211.4v.009h-.202zm.989-.326h-.233v-.147h.233c.036 0 .065-.006.088-.018s.039-.029.05-.05a.176.176 0 0 0 0-.148c-.01-.023-.027-.042-.05-.057s-.052-.021-.088-.021h-.168v.767h-.188v-.914h.356c.072 0 .133.013.184.039s.091.061.118.106c.027.045.041.097.041.155s-.014.11-.041.153c-.027.043-.067.076-.118.1s-.112.035-.184.035zm1.086.179v.147h-.487v-.147h.487zm-.425-.767v.914h-.188v-.914h.188zm.361.372v.143h-.423v-.143h.423zm.063-.372v.148h-.486v-.148h.486zm.532 0v.914h-.188v-.914h.188zm.281 0v.148h-.746v-.148h.746zm.721.767v.147h-.487v-.147h.487zm-.425-.767v.914h-.188v-.914h.188zm.362.372v.143h-.423v-.143h.423zm.062-.372v.148h-.486v-.148h.486zm.111 0h.341c.07 0 .13.01.18.031s.09.052.117.093a.268.268 0 0 1 .041.151c0 .049-.008.091-.025.126s-.04.064-.07.087a.373.373 0 0 1-.105.055l-.06.031h-.296l-.001-.147h.22c.033 0 .06-.006.082-.018s.038-.028.049-.049a.154.154 0 0 0 .017-.073c0-.029-.005-.055-.016-.076s-.027-.038-.05-.049a.187.187 0 0 0-.084-.017h-.153v.767h-.188V8.68zm.511.914-.208-.407.199-.001.211.4v.009h-.202zm.788-.239c0-.016-.003-.031-.008-.044s-.013-.026-.026-.036c-.013-.011-.031-.022-.055-.033s-.054-.022-.091-.034c-.041-.013-.081-.028-.118-.045s-.069-.036-.098-.058c-.028-.023-.05-.049-.067-.078s-.024-.064-.024-.104c0-.038.008-.073.025-.104s.04-.058.07-.08c.03-.023.066-.04.107-.052a.486.486 0 0 1 .312.018c.05.024.089.058.117.1a.257.257 0 0 1 .042.145h-.187c0-.027-.006-.05-.017-.07s-.028-.037-.05-.048a.174.174 0 0 0-.084-.018c-.033 0-.06.005-.082.015s-.038.023-.049.04a.096.096 0 0 0-.005.097c.007.012.02.024.035.035s.035.021.057.031a.77.77 0 0 0 .078.028c.05.015.094.032.131.051s.07.04.095.063a.225.225 0 0 1 .077.181c0 .04-.008.075-.023.107s-.038.058-.067.08c-.029.022-.064.038-.105.05s-.086.017-.136.017c-.045 0-.09-.006-.134-.018s-.084-.03-.12-.055a.262.262 0 0 1-.117-.227h.189c0 .028.004.053.013.072s.021.036.037.048c.016.012.036.021.058.026s.047.008.074.008c.033 0 .059-.005.08-.014s.037-.022.047-.038a.104.104 0 0 0 .016-.055z"/></symbol><symbol id="icon-logo3" viewBox="0 0 22 12"><path d="m7.888 10.548.01.002a.022.022 0 0 1 .008.005l.047.044a.382.382 0 0 1-.133.084.524.524 0 0 1-.189.03.525.525 0 0 1-.177-.028.366.366 0 0 1-.25-.361.37.37 0 0 1 .267-.362.56.56 0 0 1 .183-.028.438.438 0 0 1 .297.097l-.04.048-.01.009a.027.027 0 0 1-.016.004.034.034 0 0 1-.017-.005l-.021-.013-.03-.016a.476.476 0 0 0-.094-.029.409.409 0 0 0-.201.016.294.294 0 0 0-.103.06.294.294 0 0 0-.091.22.312.312 0 0 0 .024.127.276.276 0 0 0 .164.154c.039.014.08.021.122.02a.58.58 0 0 0 .072-.004.29.29 0 0 0 .109-.034c.017-.009.032-.02.047-.031a.035.035 0 0 1 .022-.008zM9.254 10.324a.371.371 0 0 1-.121.279.403.403 0 0 1-.14.08.583.583 0 0 1-.36 0c-.052-.018-.1-.046-.139-.08s-.07-.077-.09-.123a.4.4 0 0 1 0-.315.372.372 0 0 1 .09-.124.41.41 0 0 1 .139-.077.583.583 0 0 1 .36 0c.053.018.1.046.14.08s.069.077.089.122a.379.379 0 0 1 .032.158zm-.124 0a.338.338 0 0 0-.022-.126.255.255 0 0 0-.063-.094.297.297 0 0 0-.1-.06.416.416 0 0 0-.261 0 .281.281 0 0 0-.1.06.246.246 0 0 0-.064.094.367.367 0 0 0 0 .253.258.258 0 0 0 .164.154.43.43 0 0 0 .261 0 .28.28 0 0 0 .1-.059.268.268 0 0 0 .063-.095.322.322 0 0 0 .022-.126zM10.186 10.457l.012.028.014-.028.015-.028.302-.469c.006-.008.011-.013.017-.015a.1.1 0 0 1 .025-.003h.089v.764h-.106V10.095l-.304.476c-.004.007-.01.013-.018.017s-.017.006-.026.006h-.017c-.009 0-.018-.002-.026-.006s-.014-.01-.018-.017l-.313-.479V10.704H9.73v-.762h.089c.008 0 .017 0 .025.003a.035.035 0 0 1 .017.015l.309.47a.182.182 0 0 1 .015.027zM11.324 10.419v.286h-.118v-.763h.264a.558.558 0 0 1 .147.017.275.275 0 0 1 .104.048.193.193 0 0 1 .059.075.22.22 0 0 1 .02.098.212.212 0 0 1-.086.174.311.311 0 0 1-.105.051.488.488 0 0 1-.143.018l-.143-.002zm0-.082h.143a.357.357 0 0 0 .092-.012.195.195 0 0 0 .066-.033.123.123 0 0 0 .04-.051.13.13 0 0 0 .014-.064.135.135 0 0 0-.053-.114.257.257 0 0 0-.159-.041h-.143v.314zM12.914 10.706h-.093c-.009 0-.019-.002-.026-.007s-.012-.011-.015-.018l-.08-.184h-.404l-.083.184c-.003.007-.008.013-.015.017s-.017.008-.027.008h-.093l.355-.764h.123l.36.764zm-.586-.284h.334l-.141-.311a.444.444 0 0 1-.027-.072l-.014.04-.013.032-.14.31zM13.425 9.946a.049.049 0 0 1 .018.014l.518.576V9.943h.106v.764h-.059c-.008 0-.017-.001-.024-.005s-.014-.008-.019-.014l-.517-.575V10.706h-.106v-.764h.063a.05.05 0 0 1 .021.004zM14.938 10.402v.303h-.118v-.303l-.327-.46h.106c.009 0 .018.002.025.007s.012.011.016.017l.205.297.021.035a.3.3 0 0 1 .015.032l.015-.033c.006-.012.012-.024.02-.035l.202-.299a.075.075 0 0 1 .015-.016.044.044 0 0 1 .025-.008h.107l-.328.462zM10.128 8.661c.051.006.104.01.156.014.798-.305 1.473-.804 1.941-1.435s.708-1.366.689-2.113l-.88-.752c.179.795.095 1.617-.242 2.374s-.913 1.419-1.665 1.912z"/><path d="m9.814 8.626.024.004c.804-.491 1.416-1.177 1.759-1.969s.399-1.653.163-2.473l-1.253-1.07c.507.88.711 1.864.588 2.839s-.566 1.9-1.28 2.668zM14.063 6.009c-.213.821-.73 1.561-1.474 2.11a4.805 4.805 0 0 1-.7.43c.606-.152 1.163-.421 1.628-.786s.826-.817 1.054-1.32l-.508-.434z"/><path d="m13.863 5.888-.723-.618c-.014.705-.248 1.393-.679 1.994s-1.042 1.093-1.77 1.423h.004c.162 0 .324-.008.486-.025.681-.237 1.282-.615 1.75-1.099s.789-1.06.933-1.676zM9.918 2.667l-.863-.738c-.771.255-1.435.703-1.904 1.285s-.721 1.272-.723 1.978c.003.781.31 1.539.874 2.153s1.351 1.051 2.238 1.24c.792-.824 1.255-1.842 1.323-2.906s-.263-2.12-.945-3.012zM15.857 5.775c-.003-.926-.435-1.814-1.202-2.469s-1.806-1.024-2.89-1.027c-.501 0-.998.079-1.465.233l5.284 4.515c.181-.399.274-.823.273-1.251z"/></symbol><symbol id="icon-logo2" viewBox="0 0 22 12"><path d="M10.739 1.272h-.029c-.045-.003-.09-.004-.135-.005h-.098c-.085 0-.172.002-.258.007H10.2a6.04 6.04 0 0 0-2.253.575l-.093.045v4.745l.217-.074c.19-.065.393-.124.603-.179a7.304 7.304 0 0 1 1.735-.23v.623a5.612 5.612 0 0 0-.228.007h-.018c-.45.025-.897.093-1.335.205a6.781 6.781 0 0 0-1.59.62V1.526A6.371 6.371 0 0 1 8.906.848a6.37 6.37 0 0 1 1.572-.203h.092c.11.003.216.008.317.015.264.019.526.06.783.125v.614a4.862 4.862 0 0 0-.759-.114l-.016-.001a1.688 1.688 0 0 0-.155-.009zm1.079.627c.136.01.277.015.42.015a6.726 6.726 0 0 0 1.653-.212 6.79 6.79 0 0 0 1.589-.62v5.977a6.378 6.378 0 0 1-1.669.678c-.514.132-1.042.2-1.572.202a4.8 4.8 0 0 1-1.193-.141V1.783a4.752 4.752 0 0 0 .772.115zm3.042.046-.217.073a9.251 9.251 0 0 1-.603.18 7.35 7.35 0 0 1-1.801.231c-.141 0-.272-.004-.397-.012l-.173-.011v4.881l.149.013c.138.012.28.018.423.018a5.76 5.76 0 0 0 1.419-.184 5.986 5.986 0 0 0 1.109-.398l.093-.045V1.945zM7.658 9.688a.308.308 0 0 0-.241-.098.347.347 0 0 0-.247.097.314.314 0 0 0-.07.109.367.367 0 0 0-.025.135v.813a.386.386 0 0 0 .032.167.324.324 0 0 0 .081.109.3.3 0 0 0 .112.058c.04.011.08.017.121.017a.338.338 0 0 0 .31-.212.339.339 0 0 0 .026-.13v-.091h-.213v.072a.195.195 0 0 1-.012.072.13.13 0 0 1-.031.046.163.163 0 0 1-.144.023.101.101 0 0 1-.044-.035.191.191 0 0 1-.028-.109v-.758a.27.27 0 0 1 .026-.122.109.109 0 0 1 .104-.05c.018-.001.037.003.053.011s.031.02.042.035c.024.031.036.07.035.109v.07h.21v-.083a.38.38 0 0 0-.097-.256zM8.92 9.679a.376.376 0 0 0-.369-.066.332.332 0 0 0-.194.18.386.386 0 0 0-.031.157v.78a.384.384 0 0 0 .031.16.314.314 0 0 0 .082.109c.032.03.071.054.112.069a.37.37 0 0 0 .254 0A.331.331 0 0 0 9 10.89a.38.38 0 0 0 .031-.16v-.78a.367.367 0 0 0-.111-.271zm-.099 1.051a.14.14 0 0 1-.042.113.157.157 0 0 1-.2 0 .141.141 0 0 1-.042-.113v-.78a.14.14 0 0 1 .042-.113.157.157 0 0 1 .2 0 .141.141 0 0 1 .042.113v.78zM10.579 11.078V9.602h-.204l-.268.781h-.004l-.271-.781H9.63v1.476h.211v-.898h.004l.207.635h.105l.208-.635h.004v.898h.211zM11.777 9.706a.297.297 0 0 0-.119-.081.466.466 0 0 0-.153-.023h-.313v1.476h.21v-.577h.108a.39.39 0 0 0 .19-.04.347.347 0 0 0 .163-.242c.008-.056.012-.112.011-.168a.831.831 0 0 0-.021-.211.315.315 0 0 0-.078-.136zm-.109.45a.187.187 0 0 1-.02.077.118.118 0 0 1-.054.052.224.224 0 0 1-.099.019h-.096v-.502h.108a.195.195 0 0 1 .095.019.116.116 0 0 1 .049.054.196.196 0 0 1 .018.082v.098c0 .034.002.07 0 .101h-.002zM12.773 9.602h-.172l-.325 1.476h.21l.062-.317h.287l.062.317h.21l-.333-1.476zm-.194.958.104-.535h.004l.103.535h-.21zM14.132 10.492h-.004l-.318-.889h-.202v1.476h.21v-.888h.004l.321.888h.198V9.603h-.21v.889zM15.417 9.602l-.169.587h-.004l-.169-.587h-.223l.289.852v.624h.21v-.624l.289-.852h-.223zM7.071 11.495h.101v.284h.069v-.284h.101v-.058h-.271v.058zM7.924 11.437l-.133.343h.073l.028-.078h.137l.029.078h.075l-.136-.343h-.073zm-.011.207.047-.127.047.127h-.093zM8.766 11.653h.079v.044a.128.128 0 0 1-.121.022.078.078 0 0 1-.032-.025.142.142 0 0 1-.025-.089c0-.076.033-.114.099-.114.017-.002.035.003.049.013s.024.025.029.042l.068-.013c-.015-.067-.063-.101-.145-.101a.176.176 0 0 0-.12.044.168.168 0 0 0-.049.131.19.19 0 0 0 .044.129c.017.017.037.031.06.039s.047.012.071.011a.203.203 0 0 0 .145-.054v-.135h-.149v.058zM9.626 11.437h-.069v.343h.24v-.058h-.171v-.284zM10.354 11.437h-.069v.343h.069v-.343zM11.065 11.666l-.14-.229h-.067v.343h.064v-.224l.138.224h.069v-.343h-.063v.229zM11.708 11.629h.171v-.058h-.171v-.075h.184v-.058h-.253v.343h.26v-.058h-.191v-.093zM13.267 11.572h-.135v-.135h-.069v.343h.069v-.15h.135v.15h.069v-.343h-.069v.135zM13.914 11.629h.171v-.058h-.171v-.075h.184v-.058h-.253v.343h.26v-.058h-.191v-.093zM14.791 11.629c.06-.009.09-.041.09-.095a.082.082 0 0 0-.033-.077.184.184 0 0 0-.1-.02h-.145v.343h.069v-.143h.014a.092.092 0 0 1 .043.008c.01.006.018.015.024.025l.075.109h.082l-.042-.067a.23.23 0 0 0-.076-.082zm-.07-.048h-.051v-.086h.054a.184.184 0 0 1 .07.008c.005.004.009.01.012.016s.004.013.003.02c0 .007-.002.013-.005.019s-.008.011-.013.015a.184.184 0 0 1-.07.008zM15.452 11.629h.171v-.058h-.171v-.075h.184v-.058h-.254v.343h.26v-.058h-.191v-.093z"/></symbol><symbol id="icon-logo1" viewBox="0 0 22 12"><path d="m8.143 1.5 1.502 1.431-2.787-.002V9.87h7.286V7.216l1.5 1.429V1.5h-7.5zm5.934 5.548L9.819 2.992h4.258v4.056zm-1.322 1.807H8.01V4.187h.335v4.352h4.41v.316zm-3.799 2.301-.177-.364h-.146l.256.481v.28h.132v-.28l.256-.481h-.145l-.177.364zm.652-.364h.031l.288.762h-.138l-.062-.178h-.295l-.062.178h-.138l.287-.762h.088zm-.139.48h.223l-.112-.323-.111.323zm.92-.127-.017-.021c-.02-.026-.035-.051-.046-.075s-.016-.05-.016-.075c0-.04.008-.074.025-.103s.04-.051.07-.066a.22.22 0 0 1 .105-.024c.039 0 .072.008.1.024s.05.036.065.061a.16.16 0 0 1 .023.084c0 .024-.004.046-.013.066s-.021.038-.036.054a.412.412 0 0 1-.053.047l-.053.039.151.178.014-.031a.304.304 0 0 0 .019-.111h.109c0 .037-.004.072-.011.105s-.018.064-.034.092c-.006.012-.014.023-.022.034l.112.132h-.146l-.044-.052a.33.33 0 0 1-.078.043.352.352 0 0 1-.118.02c-.051 0-.094-.009-.131-.028s-.066-.044-.086-.076a.207.207 0 0 1-.011-.193.252.252 0 0 1 .053-.066.857.857 0 0 1 .07-.056zm.063.077-.016.011c-.018.015-.032.029-.041.043a.124.124 0 0 0-.021.068c0 .022.005.043.014.061s.024.033.042.043c.019.01.042.016.069.016a.19.19 0 0 0 .123-.043l-.17-.199zm.03-.139.047-.031c.022-.015.038-.029.047-.043s.014-.032.014-.053c0-.018-.007-.035-.021-.05s-.034-.023-.059-.023c-.018 0-.033.004-.045.013s-.021.019-.028.032c-.006.013-.009.028-.009.044s.004.032.012.049a.316.316 0 0 0 .033.052l.009.011zm1.332.223h-.131c-.004.033-.012.061-.024.084s-.029.04-.053.052a.196.196 0 0 1-.091.018c-.031 0-.057-.006-.079-.018s-.04-.029-.054-.052c-.014-.022-.024-.049-.031-.08s-.01-.066-.01-.105v-.064c0-.04.004-.076.011-.108s.019-.058.034-.08c.015-.022.034-.038.056-.049s.048-.017.078-.017c.037 0 .066.006.089.019s.04.03.051.053c.012.023.02.051.023.084h.131c-.005-.051-.02-.096-.043-.135s-.055-.07-.097-.093a.328.328 0 0 0-.154-.033c-.048 0-.091.008-.129.025s-.071.041-.098.073c-.027.031-.048.069-.063.114s-.021.094-.021.149v.063c0 .055.007.104.021.149s.035.082.062.114c.027.031.059.055.097.072s.08.025.127.025c.061 0 .114-.011.156-.033s.076-.053.1-.092a.298.298 0 0 0 .042-.133zm.727-.112v-.042c0-.058-.008-.109-.023-.154s-.036-.085-.064-.117c-.028-.032-.061-.057-.1-.074s-.082-.026-.129-.026-.089.009-.128.026-.072.041-.1.074c-.028.032-.05.071-.065.117s-.023.097-.023.154v.042c0 .058.008.109.023.155s.038.085.066.117a.29.29 0 0 0 .228.099c.047 0 .09-.008.129-.025s.072-.042.099-.074c.028-.032.049-.071.064-.117s.023-.097.023-.155zm-.131-.043v.043c0 .043-.004.08-.013.113s-.02.061-.036.083c-.016.022-.035.039-.058.051s-.049.017-.078.017c-.029 0-.055-.006-.077-.017s-.042-.028-.059-.051c-.016-.023-.028-.05-.037-.083s-.013-.07-.013-.113v-.043c0-.043.004-.08.013-.112s.02-.06.036-.082c.016-.022.035-.039.058-.05s.048-.017.077-.017.055.006.078.017c.023.011.042.028.058.05s.028.049.036.082c.008.032.013.07.013.112z"/></symbol><symbol id="icon-linkedin" viewBox="0 0 12 12"><path d="M11.997 12v-.001H12V7.598c0-2.153-.463-3.812-2.98-3.812-1.21 0-2.022.664-2.354 1.294h-.035V3.987H4.244v8.012h2.485V8.032c0-1.045.198-2.055 1.491-2.055 1.275 0 1.294 1.192 1.294 2.122V12h2.482zM.198 3.988h2.488V12H.198V3.988zM1.441 0C.646 0 0 .646 0 1.441s.646 1.455 1.441 1.455c.796 0 1.441-.659 1.441-1.455S2.236 0 1.441 0z"/></symbol><symbol id="icon-facebook" viewBox="0 0 12 12"><path d="M7.999 1.992h1.096V.084a14.102 14.102 0 0 0-1.596-.085c-1.579 0-2.661.993-2.661 2.819v1.681H3.095v2.133h1.743v5.367h2.137V6.632h1.672l.265-2.133H6.974v-1.47C6.975 2.412 7.14 1.99 8 1.99z"/></symbol><symbol id="icon-twitter" viewBox="0 0 12 12"><path d="M12 2.279a5.12 5.12 0 0 1-1.418.389c.51-.304.899-.783 1.082-1.36a4.895 4.895 0 0 1-1.56.595 2.46 2.46 0 0 0-4.256 1.683c0 .195.017.382.057.561A6.966 6.966 0 0 1 .834 1.574a2.463 2.463 0 0 0 .756 3.288 2.417 2.417 0 0 1-1.111-.303v.027c0 1.196.853 2.188 1.971 2.417a2.44 2.44 0 0 1-.645.081c-.157 0-.316-.009-.466-.042a2.484 2.484 0 0 0 2.299 1.714A4.942 4.942 0 0 1-.001 9.771a6.924 6.924 0 0 0 3.774 1.104c4.527 0 7.002-3.75 7.002-7.001 0-.109-.004-.214-.009-.318a4.895 4.895 0 0 0 1.233-1.277z"/></symbol><symbol id="icon-instagram" viewBox="0 0 12 12"><path d="M11.988 3.528c-.028-.638-.131-1.076-.279-1.456a2.925 2.925 0 0 0-.694-1.064A2.947 2.947 0 0 0 9.953.316C9.571.168 9.135.065 8.497.037c-.642-.03-.846-.038-2.476-.038S4.188.006 3.548.034C2.91.062 2.472.165 2.092.313a2.925 2.925 0 0 0-1.064.694 2.96 2.96 0 0 0-.692 1.062c-.148.382-.251.818-.279 1.456-.03.642-.038.846-.038 2.476s.007 1.833.035 2.473c.028.638.131 1.076.279 1.456.152.403.389.764.694 1.064.3.305.663.542 1.062.692.382.148.818.251 1.456.279.64.028.844.035 2.473.035s1.833-.007 2.473-.035c.638-.028 1.076-.131 1.456-.279a3.07 3.07 0 0 0 1.756-1.756c.148-.382.251-.818.279-1.456.028-.64.035-.844.035-2.473s-.002-1.833-.031-2.473zm-1.08 4.899c-.026.586-.124.903-.206 1.114a1.99 1.99 0 0 1-1.139 1.139c-.211.082-.53.181-1.114.206-.633.028-.823.035-2.424.035s-1.793-.007-2.424-.035c-.586-.026-.903-.124-1.113-.206a1.847 1.847 0 0 1-.689-.448 1.872 1.872 0 0 1-.448-.689c-.082-.211-.18-.53-.206-1.114-.028-.633-.035-.823-.035-2.424s.007-1.793.035-2.424c.026-.586.124-.903.206-1.114.096-.26.249-.497.45-.689.194-.199.429-.352.689-.448.211-.082.53-.18 1.113-.206.633-.028.823-.035 2.424-.035 1.603 0 1.793.007 2.424.035.586.026.903.124 1.114.206.26.096.497.248.689.448.199.195.352.429.448.689.082.211.18.53.206 1.114.028.633.035.823.035 2.424s-.007 1.789-.035 2.422z"/><path d="M6.022 2.918a3.084 3.084 0 0 0 0 6.166 3.084 3.084 0 0 0 0-6.166zm0 5.083a2 2 0 1 1 0-4 2 2 0 0 1 0 4zM9.947 2.797a.72.72 0 1 1-1.44 0 .72.72 0 0 1 1.44 0z"/></symbol><symbol id="icon-astronaut" viewBox="0 0 12 12"><path fill="#4d5ae5" d="M11.99 1.697a.201.201 0 0 0-.161-.136l-.716-.104-.321-.649c-.067-.137-.291-.137-.359 0l-.321.649-.716.104c-.075.011-.138.064-.162.136s-.004.152.051.205l.519.505-.122.714a.199.199 0 0 0 .29.211l.641-.337.641.337a.203.203 0 0 0 .211-.015.2.2 0 0 0 .079-.196l-.122-.714.519-.505a.202.202 0 0 0 .051-.205zm-.923.497a.198.198 0 0 0-.057.177l.072.418-.375-.197a.203.203 0 0 0-.186 0l-.375.197.072-.418a.2.2 0 0 0-.057-.177l-.304-.296.42-.061a.2.2 0 0 0 .151-.109l.188-.38.188.38c.029.059.085.1.151.109l.42.061-.303.296zM9.8 7.696h-.4v.4h.4v-.4zM9.8 8.496h-.4v.4h.4v-.4zM10.2 8.096h-.4v.4h.4v-.4zM9.4 8.096H9v.4h.4v-.4zM8.4 9.896H8v.4h.4v-.4zM8.4 10.696H8v.4h.4v-.4zM8.8 10.296h-.4v.4h.4v-.4zM8 10.296h-.4v.4H8v-.4zM6 9.096h-.4v.4H6v-.4zM6 9.896h-.4v.4H6v-.4zM6.4 9.496H6v.4h.4v-.4zM5.6 9.496h-.4v.4h.4v-.4zM2.2 2.296h-.4v.4h.4v-.4zM2.2 3.096h-.4v.4h.4v-.4zM2.6 2.696h-.4v.4h.4v-.4zM1.8 2.696h-.4v.4h.4v-.4z" style="fill:var(--color3, #4d5ae5)"/><path fill="#2e2f42" d="M9.268 5.31a.669.669 0 0 0-.948-.132l-.47.36-.712.531-.509-.203a2.602 2.602 0 0 0 1.543-2.37c0-1.434-1.171-2.6-2.61-2.6s-2.61 1.166-2.61 2.6c0 .52.155 1.003.42 1.409l-1.036-.009h-.002l-.009.002a.194.194 0 0 0-.058.012l-.014.005-.007.002-1.212.599-.71.341C.316 5.86.308 5.865.3 5.87a.668.668 0 0 0 .374 1.225.675.675 0 0 0 .315-.079l.52-.277.849-.438.509-.003L.826 8.329H.825l-.502.5c-.119.118-.184.275-.184.442s.065.324.184.442a.626.626 0 0 0 .885 0l.493-.491.653-.487.338.336-.661.658H2.03l-.502.5c-.119.118-.184.275-.184.442s.065.324.184.442a.626.626 0 0 0 .885 0l1.306-1.3v-.001l.379-.375-.001-.001c.002-.002.006-.003.008-.006l1.937-2.122 1.302.185a.208.208 0 0 0 .098-.012c.007-.002.012-.006.019-.009l.022-.01 1.205-.8.011-.011c.004-.003.011-.005.015-.01l.477-.447a.667.667 0 0 0 .079-.886zM.799 6.664a.273.273 0 0 1-.369-.115.268.268 0 0 1 .08-.338l.493-.237.168.492-.372.198zm1.311-.686-.581.3-.165-.481.76-.375-.015.556zm5.663-2.482c0 .344-.082.669-.225.96L5.98 3.744a.695.695 0 0 0-.296-.52l.549-1.823a2.204 2.204 0 0 1 1.539 2.095zm-4.421 0a2.208 2.208 0 0 1 2.489-2.18l-.537 1.783-.021-.002c-.387 0-.702.314-.702.7a.702.702 0 0 0 1.309.346l1.448.658a2.21 2.21 0 0 1-3.986-1.304zm2.233.3a.302.302 0 0 1-.604 0 .302.302 0 0 1 .604 0zM.924 9.43a.227.227 0 0 1-.386-.159c0-.06.023-.116.066-.158l.361-.359.319.318-.36.358zm1.206 1.4a.228.228 0 0 1-.321 0 .222.222 0 0 1 0-.317l.361-.36.319.318-.36.358zm1.305-1.301h-.001l-.662.66-.319-.318.661-.658h.001c.015-.015.024-.033.034-.051.003-.005.008-.01.01-.015.006-.015.007-.032.01-.048.001-.009.005-.018.005-.027 0-.013-.005-.026-.008-.04-.002-.012-.002-.024-.007-.036-.008-.019-.021-.035-.034-.052-.004-.004-.005-.01-.009-.014s0-.001 0-.001l-.603-.6c-.006-.006-.015-.009-.022-.014-.011-.008-.021-.016-.033-.022s-.023-.009-.035-.012a.168.168 0 0 0-.075-.005c-.013.002-.026.003-.039.008s-.024.01-.035.017c-.007.004-.016.006-.023.011l-.665.496-.338-.336.9-.895 1.635 1.608-.348.345zm2.557-2.631c-.006-.001-.011.001-.017.001a.153.153 0 0 0-.043.003.198.198 0 0 0-.033.008c-.013.004-.024.01-.036.018s-.021.014-.031.023c-.005.004-.011.006-.015.011l-1.762 1.93-1.623-1.596 1.062-1.057a.2.2 0 0 0-.142-.342l-.832.005.01-.603 1.164.01a2.606 2.606 0 0 0 2.348.742c.015.012.03.024.049.032l.904.36.057.284.067.332-1.126-.16zm1.516.067-.117-.584.542-.405.355.471-.78.518zm1.407-1.062-.314.294-.349-.464.312-.239c.058-.045.132-.063.204-.054s.136.048.18.107a.268.268 0 0 1-.032.355z" style="fill:var(--color4, #2e2f42)"/><path fill="#2e2f42" d="m5.101 6.954-.804-.8a.2.2 0 0 0-.282 0l-.803.8a.2.2 0 0 0 0 .284l.803.8c.039.039.09.058.141.058s.102-.019.141-.058l.804-.8a.2.2 0 0 0 0-.284zm-.945.66-.52-.518.52-.518.52.518-.52.518zM6.437 1.902l-.097.388c.027.007.652.169.652.806h.4c0-.756-.625-1.112-.955-1.194zM7.392 3.496h-.4v.4h.4v-.4z" style="fill:var(--color4, #2e2f42)"/></symbol><symbol id="icon-diagram" viewBox="0 0 12 12"><path fill="#4d5ae5" d="M5.597 5.612h.4v1.799h-.4V5.612zM7.196 6.411h.4v.999h-.4v-.999zM3.998 7.011h.4v.4h-.4v-.4zM2.799 6.811h.4v.6h-.4v-.6z" style="fill:var(--color3, #4d5ae5)"/><path fill="#2e2f42" d="M.6 10.609h9.595a.6.6 0 0 0 .6-.6v-.8a.6.6 0 0 0-.6-.6h-.2V3.624l1.135-1.076a.603.603 0 1 0-.279-.286l-.856.811v-.461a.6.6 0 0 0-.6-.6H1.399a.6.6 0 0 0-.6.6v5.997h-.2a.6.6 0 0 0-.6.6v.8a.6.6 0 0 0 .6.6zm10.794-8.795a.2.2 0 1 1 0 .4.2.2 0 0 1 0-.4zm-10.195.799c0-.11.09-.2.2-.2h7.996c.11 0 .2.09.2.2v.839l-.4.38v-.82a.2.2 0 0 0-.2-.2H1.799a.2.2 0 0 0-.2.2v4.997c0 .11.09.2.2.2h7.196a.2.2 0 0 0 .2-.2V4.381l.4-.379v4.606H1.199V2.611zm1.799 2.599a.6.6 0 1 0 .415 1.03l.695.349c.081.04.179.021.239-.046l1.477-1.662 1.452 1.088a.2.2 0 0 0 .257-.015l1.262-1.195V7.81H1.999V3.212h6.796v.998L7.381 5.549 5.917 4.451a.2.2 0 0 0-.269.027L4.151 6.163l-.56-.28a.582.582 0 0 0 .008-.073.6.6 0 0 0-.6-.6zm.2.6a.2.2 0 1 1-.4 0 .2.2 0 0 1 .4 0zm1.2 3.198h1.999v.2a.2.2 0 0 1-.2.2H4.598a.2.2 0 0 1-.2-.2v-.2zM.4 9.21c0-.11.09-.2.2-.2h3.398v.2a.6.6 0 0 0 .6.6h1.599a.6.6 0 0 0 .6-.6v-.2h3.398a.2.2 0 0 1 .2.2v.8a.2.2 0 0 1-.2.2H.6a.2.2 0 0 1-.2-.2v-.8z" style="fill:var(--color4, #2e2f42)"/></symbol><symbol id="icon-antenna" viewBox="0 0 12 12"><path fill="#2e2f42" d="M11.54 8.287 8.374 5.098l.351-1.731a.815.815 0 0 0 .284.055h.002a.81.81 0 1 0-.753-.538l-1.86.227L3.364.061a.198.198 0 0 0-.281-.002l-.567.564a.2.2 0 0 0 0 .283l.305.31a5.605 5.605 0 0 0 .945 6.624.204.204 0 0 0 .055.037 1.177 1.177 0 0 0-.02.205v2.32h-2.4a1.002 1.002 0 0 0-1 1v.4c0 .11.09.2.2.2h9.2a.2.2 0 0 0 .2-.2v-.4a1.002 1.002 0 0 0-1-1h-2.4V9.374a5.63 5.63 0 0 0 1.143.12 5.568 5.568 0 0 0 2.64-.669l.307.309a.198.198 0 0 0 .281.002l.567-.564a.2.2 0 0 0 0-.283zm-2.81-5.95a.4.4 0 1 1 .282.684h-.001a.4.4 0 0 1-.28-.684H8.73zm-.471 1.315-.224 1.105-.441-.443.665-.661zm-.227-.339-.72.716-.557-.56 1.277-.156zm.97 7.487a.6.6 0 0 1 .6.6v.2h-8.8v-.2a.6.6 0 0 1 .6-.6h7.6zm-2.8-.8v.4h-2V10h2zm-2-.4V8.08c0-.485.449-.88 1-.88s1 .395 1 .88V9.6h-2zm2.4-.636V8.08c0-.706-.628-1.28-1.4-1.28a1.422 1.422 0 0 0-1.23.67 5.2 5.2 0 0 1-.854-5.958l6.976 7.016a5.183 5.183 0 0 1-3.491.436zm4.233-.256L2.939.765l.283-.282 2.976 2.992.004.004 4.918 4.947-.284.282z" style="fill:var(--color4, #2e2f42)"/><path fill="#4d5ae5" d="M5.203 7.6h-.002a.6.6 0 0 0-.002 1.2h.002a.6.6 0 0 0 .002-1.2zm.14.742a.2.2 0 0 1-.282-.284.197.197 0 0 1 .14-.058.2.2 0 0 1 .14.342h.002z" style="fill:var(--color3, #4d5ae5)"/></symbol><symbol id="icon-clock" viewBox="0 0 12 12"><path fill="#2e2f42" d="M11.736 5.738a5.74 5.74 0 1 0-7.484 5.468.238.238 0 0 0 .198-.024.24.24 0 0 0 .106-.134l1.449-4.594a.718.718 0 1 0-.315-1.363L3.775 3.176a.239.239 0 0 0-.338.338L5.351 5.43a.703.703 0 0 0 .201.866l-1.381 4.377A5.266 5.266 0 1 1 7.812.79a5.266 5.266 0 0 1 .323 9.752l-.149-.703a.238.238 0 0 0-.393-.128l-1.439 1.285a.24.24 0 0 0 .086.407l1.837.586a.24.24 0 0 0 .307-.278l-.147-.69a5.72 5.72 0 0 0 3.498-5.283zm-5.739-.239a.239.239 0 1 1 0 .478.239.239 0 0 1 0-.478zm.788 5.574.819-.731.226 1.065-1.045-.335z" style="fill:var(--color4, #2e2f42)"/><path fill="#4d5ae5" d="M5.758 1.194v.478a.239.239 0 1 0 .478 0v-.478a.239.239 0 1 0-.478 0zM1.453 5.499a.239.239 0 1 0 0 .478h.478a.239.239 0 1 0 0-.478h-.478zM10.541 5.977a.239.239 0 1 0 0-.478h-.478a.239.239 0 1 0 0 .478h.478z" style="fill:var(--color3, #4d5ae5)"/></symbol></defs></svg> 