<svg aria-hidden="true" style="position: absolute; width: 0; height: 0; overflow: hidden;" version="1.1" xmlns="http://www.w3.org/2000/svg" xmlns:xlink="http://www.w3.org/1999/xlink">
<defs>
<symbol id="icon-checkbox-default" viewBox="0 0 12 12">
<path stroke-linejoin="miter" stroke-linecap="butt" stroke-miterlimit="4" stroke-width="0.9375" d="M1.5 0.469h9c0.57 0 1.031 0.462 1.031 1.031v9c0 0.57-0.462 1.031-1.031 1.031h-9c-0.57 0-1.031-0.462-1.031-1.031v-9c0-0.57 0.462-1.031 1.031-1.031z"></path>
</symbol>
<symbol id="icon-checked" viewBox="0 0 12 12">
<path fill="#404bbf" style="fill: var(--color1, #404bbf)" d="M1.5 0.469h9c0.57 0 1.031 0.462 1.031 1.031v9c0 0.57-0.462 1.031-1.031 1.031h-9c-0.57 0-1.031-0.462-1.031-1.031v-9c0-0.57 0.462-1.031 1.031-1.031z"></path>
<path fill="#f4f4fd" style="fill: var(--color2, #f4f4fd)" d="M8.584 3.191c0.13-0.124 0.302-0.193 0.481-0.191s0.35 0.073 0.478 0.199c0.128 0.126 0.202 0.297 0.206 0.477s-0.060 0.355-0.181 0.487l-3.671 4.616c-0.063 0.068-0.139 0.123-0.224 0.161s-0.176 0.059-0.269 0.060c-0.093 0.002-0.185-0.015-0.271-0.050s-0.164-0.087-0.23-0.153l-2.434-2.448c-0.068-0.064-0.122-0.14-0.16-0.225s-0.058-0.177-0.060-0.27c-0.002-0.093 0.015-0.186 0.050-0.272s0.086-0.165 0.152-0.231c0.066-0.066 0.144-0.118 0.229-0.153s0.178-0.052 0.271-0.050c0.093 0.002 0.184 0.022 0.269 0.060s0.161 0.093 0.224 0.161l1.927 1.936 3.195-4.093c0.006-0.007 0.012-0.014 0.018-0.020h-0.001z"></path>
<path fill="none" stroke="#404bbf" style="stroke: var(--color1, #404bbf)" stroke-linejoin="miter" stroke-linecap="butt" stroke-miterlimit="4" stroke-width="0.9375" d="M1.5 0.469h9c0.57 0 1.031 0.462 1.031 1.031v9c0 0.57-0.462 1.031-1.031 1.031h-9c-0.57 0-1.031-0.462-1.031-1.031v-9c0-0.57 0.462-1.031 1.031-1.031z"></path>
</symbol>
<symbol id="icon-mail" viewBox="0 0 16 12">
<path d="M14 0h-12c-0.825 0-1.492 0.675-1.492 1.5l-0.008 9c0 0.825 0.675 1.5 1.5 1.5h12c0.825 0 1.5-0.675 1.5-1.5v-9c0-0.825-0.675-1.5-1.5-1.5zM13.7 3.188l-5.303 3.315c-0.24 0.15-0.555 0.15-0.795 0l-5.303-3.315c-0.188-0.12-0.3-0.323-0.3-0.54 0-0.502 0.547-0.802 0.975-0.54l5.025 3.143 5.025-3.143c0.427-0.263 0.975 0.038 0.975 0.54 0 0.218-0.112 0.42-0.3 0.54z"></path>
</symbol>
<symbol id="icon-telefon" viewBox="0 0 12 12">
<path d="M10.824 8.183l-1.697-0.194c-0.407-0.047-0.808 0.094-1.096 0.381l-1.229 1.229c-1.89-0.962-3.44-2.505-4.402-4.402l1.236-1.236c0.287-0.287 0.428-0.688 0.381-1.096l-0.194-1.683c-0.080-0.675-0.648-1.182-1.329-1.182h-1.156c-0.755 0-1.383 0.628-1.336 1.383 0.354 5.705 4.917 10.261 10.615 10.615 0.755 0.047 1.383-0.581 1.383-1.336v-1.156c0.007-0.675-0.501-1.243-1.176-1.323z"></path>
</symbol>
<symbol id="icon-person" viewBox="0 0 12 12">
<path d="M6 6c1.658 0 3-1.343 3-3s-1.342-3-3-3c-1.657 0-3 1.343-3 3s1.343 3 3 3zM6 7.5c-2.002 0-6 1.005-6 3v0.75c0 0.413 0.338 0.75 0.75 0.75h10.5c0.413 0 0.75-0.337 0.75-0.75v-0.75c0-1.995-3.998-3-6-3z"></path>
</symbol>
<symbol id="icon-send" viewBox="0 0 14 12">
<path fill="#fff" style="fill: var(--color3, #fff)" d="M14.4 0l-14.4 6.75 4.602 1.42 7.098-5.545-5.399 6.070 0.004 0.001-0.005-0.001v3.305l2.581-2.509 3.269 1.009 2.25-10.5z"></path>
</symbol>
<symbol id="icon-check" viewBox="0 0 15 12">
<path d="M12.668 0.383c0.259-0.248 0.604-0.385 0.962-0.383s0.701 0.145 0.956 0.397c0.255 0.252 0.404 0.594 0.413 0.954s-0.12 0.709-0.362 0.974l-7.342 9.231c-0.126 0.137-0.279 0.246-0.448 0.323s-0.352 0.117-0.538 0.121c-0.186 0.003-0.37-0.031-0.542-0.101s-0.328-0.174-0.46-0.306l-4.869-4.895c-0.136-0.127-0.244-0.28-0.32-0.45s-0.116-0.354-0.119-0.54 0.031-0.371 0.1-0.544c0.069-0.173 0.173-0.33 0.304-0.461s0.287-0.236 0.459-0.305 0.356-0.104 0.541-0.101c0.185 0.003 0.368 0.044 0.537 0.12s0.322 0.185 0.448 0.321l3.853 3.872 6.391-8.186c0.012-0.014 0.024-0.028 0.037-0.041h-0.002z"></path>
</symbol>
<symbol id="icon-close" viewBox="0 0 12 12">
<path d="M12 1.209l-1.209-1.209-4.791 4.791-4.791-4.791-1.209 1.209 4.791 4.791-4.791 4.791 1.209 1.209 4.791-4.791 4.791 4.791 1.209-1.209-4.791-4.791 4.791-4.791z"></path>
</symbol>
<symbol id="icon-Logo6" viewBox="0 0 22 12">
<path fill="#8e8f99" style="fill: var(--color4, #8e8f99)" d="M11.471 5.881c-0.095-0.127-0.141-0.276-0.13-0.427v-0.619c0-0.19 0.043-0.334 0.129-0.433s0.234-0.148 0.444-0.147c0.197 0 0.337 0.042 0.42 0.126 0.090 0.107 0.134 0.238 0.124 0.37v0.145h-0.352v-0.147c0.001-0.048-0.002-0.096-0.010-0.144-0.005-0.033-0.023-0.063-0.050-0.086-0.036-0.025-0.082-0.036-0.128-0.033-0.048-0.003-0.096 0.009-0.134 0.035-0.031 0.025-0.051 0.058-0.058 0.094-0.010 0.051-0.015 0.102-0.014 0.153v0.751c-0.006 0.072 0.010 0.145 0.045 0.211 0.018 0.022 0.042 0.040 0.070 0.051s0.060 0.015 0.091 0.012c0.045 0.003 0.090-0.009 0.125-0.034 0.029-0.025 0.047-0.057 0.053-0.091 0.008-0.050 0.012-0.1 0.011-0.15v-0.152h0.352v0.139c0.010 0.138-0.033 0.274-0.122 0.389-0.081 0.092-0.219 0.138-0.422 0.138s-0.356-0.049-0.443-0.151z"></path>
<path fill="#8e8f99" style="fill: var(--color4, #8e8f99)" d="M12.938 5.887c-0.089-0.096-0.133-0.237-0.133-0.422v-0.651c0-0.184 0.045-0.323 0.133-0.417s0.238-0.141 0.447-0.141c0.207 0 0.355 0.047 0.444 0.141s0.134 0.234 0.134 0.417v0.651c0 0.184-0.045 0.325-0.136 0.422s-0.238 0.145-0.443 0.145-0.357-0.049-0.447-0.145zM13.548 5.731c0.032-0.060 0.046-0.126 0.042-0.193v-0.797c0.004-0.065-0.010-0.13-0.042-0.189-0.018-0.023-0.043-0.041-0.072-0.052s-0.061-0.015-0.093-0.011c-0.032-0.004-0.064 0-0.093 0.011s-0.054 0.029-0.072 0.052c-0.032 0.059-0.047 0.124-0.042 0.189v0.801c-0.004 0.066 0.010 0.132 0.042 0.193 0.021 0.020 0.046 0.037 0.074 0.048s0.059 0.017 0.091 0.017 0.062-0.006 0.091-0.017c0.028-0.011 0.054-0.027 0.074-0.048v-0.004z"></path>
<path fill="#8e8f99" style="fill: var(--color4, #8e8f99)" d="M14.387 4.274h0.379l0.285 1.201 0.292-1.201h0.369l0.037 1.734h-0.273l-0.029-1.205-0.282 1.205h-0.219l-0.292-1.209-0.027 1.209h-0.276l0.034-1.734z"></path>
<path fill="#8e8f99" style="fill: var(--color4, #8e8f99)" d="M16.175 4.274h0.591c0.34 0 0.511 0.164 0.511 0.492 0 0.314-0.179 0.471-0.538 0.471h-0.201v0.771h-0.365l0.002-1.734zM16.68 5.015c0.036 0.004 0.073 0.001 0.107-0.008s0.066-0.025 0.093-0.046c0.042-0.059 0.060-0.127 0.053-0.196 0.002-0.053-0.004-0.106-0.018-0.157-0.005-0.017-0.014-0.033-0.027-0.048s-0.028-0.026-0.046-0.035c-0.051-0.021-0.107-0.030-0.163-0.028h-0.142v0.518h0.142z"></path>
<path fill="#8e8f99" style="fill: var(--color4, #8e8f99)" d="M17.803 4.274h0.392l0.402 1.734h-0.34l-0.080-0.4h-0.349l-0.082 0.4h-0.345l0.402-1.734zM18.137 5.407l-0.136-0.728-0.136 0.728h0.273z"></path>
<path fill="#8e8f99" style="fill: var(--color4, #8e8f99)" d="M18.921 4.274h0.255l0.489 0.989v-0.989h0.303v1.734h-0.243l-0.492-1.032v1.032h-0.313l0.001-1.734z"></path>
<path fill="#8e8f99" style="fill: var(--color4, #8e8f99)" d="M20.677 5.347l-0.406-1.070h0.342l0.248 0.687 0.233-0.687h0.335l-0.401 1.070v0.661h-0.35v-0.661z"></path>
<path fill="#8e8f99" style="fill: var(--color4, #8e8f99)" d="M12.034 6.766v0.091h-0.298v0.704h-0.125v-0.704h-0.299v-0.091h0.722z"></path>
<path fill="#8e8f99" style="fill: var(--color4, #8e8f99)" d="M12.967 7.561h-0.096c-0.010 0.001-0.019-0.002-0.027-0.008s-0.013-0.011-0.016-0.018l-0.086-0.189h-0.413l-0.086 0.189c-0.002 0.008-0.007 0.015-0.013 0.021-0.008 0.005-0.017 0.008-0.027 0.008h-0.096l0.365-0.795h0.127l0.369 0.792zM12.363 7.266h0.344l-0.146-0.324c-0.011-0.024-0.020-0.049-0.027-0.075-0.005 0.015-0.009 0.030-0.014 0.042l-0.013 0.033-0.144 0.323z"></path>
<path fill="#8e8f99" style="fill: var(--color4, #8e8f99)" d="M13.596 7.483c0.023 0.001 0.046 0.001 0.069 0 0.020-0.002 0.039-0.005 0.058-0.009 0.018-0.004 0.035-0.009 0.053-0.014 0.016-0.006 0.032-0.013 0.049-0.020v-0.179h-0.146c-0.004 0-0.007-0-0.011-0.001s-0.006-0.003-0.009-0.005c-0.002-0.002-0.004-0.004-0.006-0.007s-0.002-0.005-0.002-0.008v-0.061h0.283v0.305c-0.023 0.014-0.048 0.027-0.073 0.038s-0.053 0.020-0.081 0.027c-0.030 0.008-0.060 0.013-0.091 0.016-0.035 0.003-0.071 0.005-0.107 0.005-0.063 0-0.125-0.010-0.184-0.030-0.055-0.019-0.104-0.047-0.146-0.083-0.041-0.036-0.073-0.079-0.094-0.126-0.023-0.053-0.034-0.109-0.034-0.165-0.001-0.057 0.010-0.113 0.033-0.166 0.021-0.047 0.053-0.090 0.094-0.126s0.091-0.064 0.146-0.082c0.062-0.020 0.129-0.030 0.196-0.030 0.034-0 0.068 0.002 0.101 0.007 0.030 0.004 0.059 0.011 0.087 0.020 0.026 0.008 0.050 0.019 0.073 0.031s0.044 0.026 0.063 0.042l-0.035 0.049c-0.003 0.004-0.007 0.008-0.012 0.011s-0.011 0.004-0.017 0.004c-0.008-0-0.016-0.002-0.023-0.006-0.011-0.005-0.023-0.011-0.036-0.019-0.016-0.008-0.032-0.016-0.049-0.021-0.022-0.008-0.044-0.013-0.067-0.018-0.031-0.005-0.062-0.007-0.093-0.007-0.048-0-0.096 0.007-0.141 0.022-0.041 0.014-0.077 0.036-0.107 0.063-0.030 0.029-0.053 0.062-0.068 0.099-0.033 0.086-0.033 0.179 0 0.265 0.016 0.037 0.041 0.072 0.073 0.1 0.030 0.027 0.066 0.049 0.107 0.063 0.046 0.014 0.096 0.019 0.144 0.016z"></path>
<path fill="#8e8f99" style="fill: var(--color4, #8e8f99)" d="M14.759 7.47h0.398v0.091h-0.52v-0.795h0.125l-0.003 0.704z"></path>
<path fill="#8e8f99" style="fill: var(--color4, #8e8f99)" d="M15.572 7.561h-0.125v-0.795h0.125v0.795z"></path>
<path fill="#8e8f99" style="fill: var(--color4, #8e8f99)" d="M16.036 6.77c0.007 0.004 0.014 0.009 0.019 0.014l0.533 0.599c-0.001-0.009-0.001-0.019 0-0.028s0-0.018 0-0.026v-0.567h0.109v0.798h-0.063c-0.009 0.001-0.019-0.001-0.027-0.004s-0.014-0.009-0.020-0.015l-0.533-0.599c0 0.009 0 0.018 0 0.027s0 0.017 0 0.025v0.567h-0.104v-0.795h0.065c0.007 0 0.014 0.001 0.020 0.004z"></path>
<path fill="#8e8f99" style="fill: var(--color4, #8e8f99)" d="M17.615 6.766v0.088h-0.442v0.263h0.358v0.084h-0.358v0.271h0.442v0.087h-0.571v-0.793h0.571z"></path>
<path fill="#8e8f99" style="fill: var(--color4, #8e8f99)" d="M4.542 1.855l5.54 1.357v4.756l-5.54-1.357v-4.757zM4.187 1.45v5.393l6.25 1.532v-5.393l-6.25-1.532z"></path>
<path fill="#8e8f99" style="fill: var(--color4, #8e8f99)" d="M7.536 10.879l-6.25-1.533v-5.393l6.25 1.532v5.393z"></path>
<path fill="#8e8f99" style="fill: var(--color4, #8e8f99)" d="M4.29 1.794l5.467 1.34-2.325 2.007-5.468-1.341 2.326-2.006zM4.186 1.45l-2.901 2.503 6.25 1.532 2.9-2.503-6.25-1.532z"></path>
<path fill="#8e8f99" style="fill: var(--color4, #8e8f99)" d="M7.888 10.575l2.548-2.2-2.548-0.625v2.825z"></path>
</symbol>
<symbol id="icon-logo5" viewBox="0 0 22 12">
<path fill="#8e8f99" style="fill: var(--color4, #8e8f99)" d="M5.741 9.509c0.053 0.059 0.081 0.132 0.079 0.207 0.003 0.049-0.007 0.098-0.028 0.144s-0.054 0.086-0.094 0.118c-0.102 0.069-0.229 0.103-0.357 0.096h-0.627v-1.314h0.614c0.121-0.007 0.241 0.024 0.34 0.087 0.040 0.030 0.071 0.068 0.092 0.11s0.030 0.089 0.027 0.136c0.004 0.072-0.022 0.144-0.071 0.201-0.048 0.052-0.113 0.088-0.187 0.103 0.083 0.014 0.158 0.053 0.212 0.112zM5.006 9.31h0.262c0.060 0.004 0.119-0.012 0.167-0.044 0.020-0.016 0.035-0.036 0.045-0.058s0.014-0.046 0.012-0.070c0.002-0.024-0.002-0.048-0.012-0.070s-0.025-0.042-0.044-0.059c-0.049-0.033-0.11-0.049-0.172-0.044h-0.258v0.345zM5.461 9.814c0.021-0.016 0.038-0.037 0.048-0.060s0.015-0.048 0.014-0.073c0.002-0.025-0.003-0.051-0.014-0.074s-0.028-0.044-0.049-0.061c-0.051-0.034-0.114-0.051-0.178-0.048h-0.275v0.361h0.279c0.063 0.003 0.125-0.013 0.176-0.046z"></path>
<path fill="#8e8f99" style="fill: var(--color4, #8e8f99)" d="M6.996 10.073l-0.342-0.514h-0.128v0.514h-0.294v-1.314h0.556c0.14-0.009 0.279 0.031 0.387 0.112 0.078 0.071 0.125 0.165 0.132 0.265s-0.025 0.199-0.091 0.279c-0.069 0.071-0.162 0.118-0.265 0.134l0.364 0.525h-0.319zM6.526 9.381h0.24c0.167 0 0.25-0.066 0.25-0.199 0.002-0.027-0.003-0.054-0.013-0.080s-0.027-0.049-0.048-0.068c-0.053-0.039-0.121-0.059-0.189-0.053h-0.243l0.003 0.4z"></path>
<path fill="#8e8f99" style="fill: var(--color4, #8e8f99)" d="M8.602 9.809h-0.585l-0.103 0.264h-0.308l0.538-1.299h0.333l0.536 1.299h-0.308l-0.101-0.264zM8.524 9.61l-0.214-0.555-0.214 0.555h0.428z"></path>
<path fill="#8e8f99" style="fill: var(--color4, #8e8f99)" d="M10.612 10.073h-0.292l-0.654-0.894v0.894h-0.291v-1.314h0.291l0.654 0.899v-0.899h0.292v1.314z"></path>
<path fill="#8e8f99" style="fill: var(--color4, #8e8f99)" d="M12.276 9.759c-0.060 0.099-0.152 0.18-0.264 0.232-0.127 0.058-0.268 0.086-0.41 0.083h-0.519v-1.314h0.519c0.142-0.003 0.283 0.024 0.41 0.081 0.112 0.051 0.204 0.131 0.264 0.229 0.060 0.107 0.091 0.225 0.091 0.345s-0.031 0.238-0.091 0.345zM11.943 9.727c0.083-0.087 0.129-0.199 0.129-0.314s-0.046-0.226-0.129-0.314c-0.101-0.079-0.232-0.119-0.365-0.112h-0.202v0.851h0.202c0.133 0.008 0.264-0.033 0.365-0.112z"></path>
<path fill="#8e8f99" style="fill: var(--color4, #8e8f99)" d="M8.785 1.45c0 0 3.764 1.279 3.684 3.131v3.131c0 0-3.761-1.28-3.683-3.131l-0.001-3.131z"></path>
<path fill="#8e8f99" style="fill: var(--color4, #8e8f99)" d="M15.823 6.979c0.711-0.44 1.533-0.713 2.392-0.793v-0.98c-0.989 0.343-1.828 0.965-2.392 1.774z"></path>
<path fill="#8e8f99" style="fill: var(--color4, #8e8f99)" d="M15.395 7.275c0.582-1.055 1.591-1.869 2.819-2.274v-2.825c0 0-5.361 1.823-5.248 4.459v4.458c0 0 0.239-0.082 0.615-0.234 0-0.143 0-0.286 0.017-0.431 0.111-1.224 0.757-2.358 1.797-3.153z"></path>
<path fill="#8e8f99" style="fill: var(--color4, #8e8f99)" d="M14.886 8.931c0.028-0.309 0.091-0.615 0.188-0.913-0.647 0.687-1.039 1.539-1.121 2.436-0.008 0.085-0.012 0.169-0.014 0.257 0.304-0.132 0.659-0.296 1.031-0.489-0.095-0.425-0.123-0.859-0.083-1.291z"></path>
<path fill="#8e8f99" style="fill: var(--color4, #8e8f99)" d="M15.099 8.947c-0.036 0.391-0.013 0.784 0.066 1.169 1.465-0.789 3.11-2.008 3.047-3.481v-0.128c-1.046 0.105-2.025 0.517-2.787 1.172-0.178 0.406-0.288 0.833-0.327 1.269z"></path>
</symbol>
<symbol id="icon-lofo4" viewBox="0 0 22 12">
<path fill="#8e8f99" style="fill: var(--color4, #8e8f99)" d="M5.16 4.611h-0.001c-0.511 0-0.926 0.374-0.926 0.835v0.001c0 0.461 0.414 0.835 0.926 0.835h0.001c0.511 0 0.926-0.374 0.926-0.835v-0.001c0-0.461-0.414-0.835-0.926-0.835z"></path>
<path fill="#8e8f99" style="fill: var(--color4, #8e8f99)" d="M11.992 4.344c-0.001-0.64-0.284-1.254-0.786-1.706s-1.182-0.708-1.893-0.709v0c-0.71 0.001-1.391 0.256-1.893 0.709s-0.785 1.067-0.787 1.707v3.53c0 0 5.358-0.538 5.358-3.53v-0.001z"></path>
<path fill="#8e8f99" style="fill: var(--color4, #8e8f99)" d="M2.357 9.033c0.001 0.445 0.198 0.872 0.547 1.187s0.823 0.493 1.317 0.494c0.494-0.001 0.967-0.179 1.316-0.494s0.546-0.742 0.548-1.187v-2.456c0 0-3.728 0.375-3.728 2.456zM4.221 9.473c-0.097 0-0.191-0.026-0.271-0.074s-0.143-0.117-0.18-0.198-0.047-0.169-0.028-0.254c0.019-0.085 0.065-0.164 0.134-0.225s0.155-0.103 0.25-0.12c0.095-0.017 0.193-0.008 0.282 0.025s0.165 0.090 0.219 0.162c0.054 0.072 0.082 0.157 0.082 0.244 0 0.058-0.012 0.115-0.037 0.169s-0.060 0.102-0.106 0.143c-0.045 0.041-0.099 0.074-0.159 0.096s-0.123 0.034-0.187 0.034v-0.002z"></path>
<path fill="#8e8f99" style="fill: var(--color4, #8e8f99)" d="M7.63 8.682v0.914h-0.188v-0.914h0.188zM7.995 9.072v0.147h-0.416v-0.147h0.416zM8.039 8.682v0.148h-0.46v-0.148h0.46zM8.899 9.117v0.043c0 0.069-0.009 0.132-0.028 0.187s-0.045 0.102-0.080 0.141c-0.034 0.039-0.075 0.068-0.123 0.089s-0.1 0.031-0.158 0.031c-0.057 0-0.11-0.010-0.158-0.031s-0.088-0.050-0.123-0.089c-0.035-0.039-0.062-0.086-0.081-0.141s-0.028-0.118-0.028-0.187v-0.043c0-0.070 0.009-0.132 0.028-0.187s0.045-0.102 0.080-0.141c0.035-0.039 0.076-0.069 0.123-0.089s0.1-0.031 0.158-0.031c0.058 0 0.11 0.010 0.158 0.031s0.089 0.050 0.123 0.089c0.035 0.039 0.062 0.086 0.080 0.141s0.029 0.117 0.029 0.187zM8.708 9.161v-0.045c0-0.049-0.004-0.091-0.013-0.128s-0.022-0.068-0.039-0.093-0.038-0.044-0.063-0.057c-0.025-0.013-0.053-0.019-0.085-0.019s-0.060 0.006-0.085 0.019c-0.024 0.013-0.045 0.031-0.062 0.057s-0.030 0.056-0.038 0.093c-0.009 0.037-0.013 0.080-0.013 0.128v0.045c0 0.048 0.004 0.091 0.013 0.128s0.022 0.068 0.039 0.094c0.017 0.025 0.038 0.044 0.063 0.057s0.053 0.019 0.085 0.019c0.032 0 0.060-0.006 0.085-0.019s0.045-0.032 0.062-0.057c0.017-0.026 0.030-0.057 0.038-0.094s0.013-0.080 0.013-0.128zM9.51 9.357c0-0.016-0.003-0.031-0.008-0.044s-0.013-0.026-0.026-0.036c-0.013-0.011-0.031-0.022-0.055-0.033s-0.054-0.022-0.091-0.034c-0.041-0.013-0.081-0.028-0.118-0.045s-0.069-0.036-0.098-0.058c-0.028-0.023-0.050-0.049-0.067-0.078s-0.024-0.064-0.024-0.104c0-0.038 0.008-0.073 0.025-0.104s0.040-0.058 0.070-0.080c0.030-0.023 0.066-0.040 0.107-0.052s0.087-0.018 0.136-0.018c0.067 0 0.126 0.012 0.176 0.036s0.089 0.058 0.117 0.1c0.028 0.042 0.042 0.091 0.042 0.145h-0.187c0-0.027-0.006-0.050-0.017-0.070s-0.028-0.037-0.050-0.048c-0.022-0.012-0.050-0.018-0.084-0.018-0.033 0-0.060 0.005-0.082 0.015s-0.038 0.023-0.049 0.040c-0.011 0.016-0.016 0.035-0.016 0.055 0 0.015 0.004 0.030 0.011 0.042s0.020 0.024 0.035 0.035 0.035 0.021 0.057 0.031c0.023 0.010 0.049 0.019 0.078 0.028 0.050 0.015 0.094 0.032 0.131 0.051s0.070 0.040 0.095 0.063c0.026 0.023 0.045 0.050 0.058 0.080s0.019 0.063 0.019 0.101c0 0.040-0.008 0.075-0.023 0.107s-0.038 0.058-0.067 0.080c-0.029 0.022-0.064 0.038-0.105 0.050s-0.086 0.017-0.136 0.017c-0.045 0-0.090-0.006-0.134-0.018s-0.084-0.030-0.12-0.055c-0.036-0.024-0.064-0.055-0.085-0.093s-0.032-0.082-0.032-0.134h0.189c0 0.028 0.004 0.053 0.013 0.072s0.021 0.036 0.037 0.048c0.016 0.012 0.036 0.021 0.058 0.026s0.047 0.008 0.074 0.008c0.033 0 0.059-0.005 0.080-0.014s0.037-0.022 0.047-0.038c0.010-0.016 0.016-0.035 0.016-0.055zM10.235 8.682v0.914h-0.188v-0.914h0.188zM10.516 8.682v0.148h-0.746v-0.148h0.746zM11.237 9.449v0.147h-0.487v-0.147h0.487zM10.812 8.682v0.914h-0.188v-0.914h0.188zM11.174 9.054v0.143h-0.423v-0.143h0.423zM11.236 8.682v0.148h-0.486v-0.148h0.486zM11.347 8.682h0.341c0.070 0 0.13 0.010 0.18 0.031s0.090 0.052 0.117 0.093 0.041 0.091 0.041 0.151c0 0.049-0.008 0.091-0.025 0.126s-0.040 0.064-0.070 0.087c-0.030 0.023-0.065 0.041-0.105 0.055l-0.060 0.031h-0.296l-0.001-0.147h0.22c0.033 0 0.060-0.006 0.082-0.018s0.038-0.028 0.049-0.049c0.011-0.021 0.017-0.045 0.017-0.073 0-0.029-0.005-0.055-0.016-0.076s-0.027-0.038-0.050-0.049-0.050-0.017-0.083-0.017h-0.153v0.767h-0.188v-0.914zM11.858 9.596l-0.208-0.407 0.199-0.001 0.211 0.4v0.009h-0.202zM12.847 9.27h-0.233v-0.147h0.233c0.036 0 0.065-0.006 0.088-0.018s0.039-0.029 0.050-0.050c0.010-0.021 0.016-0.045 0.016-0.072s-0.005-0.053-0.016-0.076c-0.010-0.023-0.027-0.042-0.050-0.057s-0.052-0.021-0.088-0.021h-0.168v0.767h-0.188v-0.914h0.356c0.072 0 0.133 0.013 0.184 0.039s0.091 0.061 0.118 0.106c0.027 0.045 0.041 0.097 0.041 0.155s-0.014 0.11-0.041 0.153c-0.027 0.043-0.067 0.076-0.118 0.1s-0.112 0.035-0.184 0.035zM13.933 9.449v0.147h-0.487v-0.147h0.487zM13.508 8.682v0.914h-0.188v-0.914h0.188zM13.869 9.054v0.143h-0.423v-0.143h0.423zM13.932 8.682v0.148h-0.486v-0.148h0.486zM14.464 8.682v0.914h-0.188v-0.914h0.188zM14.745 8.682v0.148h-0.746v-0.148h0.746zM15.466 9.449v0.147h-0.487v-0.147h0.487zM15.041 8.682v0.914h-0.188v-0.914h0.188zM15.403 9.054v0.143h-0.423v-0.143h0.423zM15.465 8.682v0.148h-0.486v-0.148h0.486zM15.576 8.682h0.341c0.070 0 0.13 0.010 0.18 0.031s0.090 0.052 0.117 0.093c0.027 0.041 0.041 0.091 0.041 0.151 0 0.049-0.008 0.091-0.025 0.126s-0.040 0.064-0.070 0.087c-0.030 0.023-0.065 0.041-0.105 0.055l-0.060 0.031h-0.296l-0.001-0.147h0.22c0.033 0 0.060-0.006 0.082-0.018s0.038-0.028 0.049-0.049c0.011-0.021 0.017-0.045 0.017-0.073 0-0.029-0.005-0.055-0.016-0.076s-0.027-0.038-0.050-0.049c-0.022-0.011-0.050-0.017-0.084-0.017h-0.153v0.767h-0.188v-0.914zM16.087 9.596l-0.208-0.407 0.199-0.001 0.211 0.4v0.009h-0.202zM16.875 9.357c0-0.016-0.003-0.031-0.008-0.044s-0.013-0.026-0.026-0.036c-0.013-0.011-0.031-0.022-0.055-0.033s-0.054-0.022-0.091-0.034c-0.041-0.013-0.081-0.028-0.118-0.045s-0.069-0.036-0.098-0.058c-0.028-0.023-0.050-0.049-0.067-0.078s-0.024-0.064-0.024-0.104c0-0.038 0.008-0.073 0.025-0.104s0.040-0.058 0.070-0.080c0.030-0.023 0.066-0.040 0.107-0.052s0.087-0.018 0.136-0.018c0.067 0 0.126 0.012 0.176 0.036s0.089 0.058 0.117 0.1c0.028 0.042 0.042 0.091 0.042 0.145h-0.187c0-0.027-0.006-0.050-0.017-0.070s-0.028-0.037-0.050-0.048c-0.022-0.012-0.050-0.018-0.084-0.018-0.033 0-0.060 0.005-0.082 0.015s-0.038 0.023-0.049 0.040c-0.011 0.016-0.016 0.035-0.016 0.055 0 0.015 0.004 0.030 0.011 0.042s0.020 0.024 0.035 0.035 0.035 0.021 0.057 0.031c0.023 0.010 0.049 0.019 0.078 0.028 0.050 0.015 0.094 0.032 0.131 0.051s0.070 0.040 0.095 0.063c0.026 0.023 0.045 0.050 0.058 0.080s0.019 0.063 0.019 0.101c0 0.040-0.008 0.075-0.023 0.107s-0.038 0.058-0.067 0.080c-0.029 0.022-0.064 0.038-0.105 0.050s-0.086 0.017-0.136 0.017c-0.045 0-0.090-0.006-0.134-0.018s-0.084-0.030-0.12-0.055c-0.036-0.024-0.064-0.055-0.085-0.093s-0.032-0.082-0.032-0.134h0.189c0 0.028 0.004 0.053 0.013 0.072s0.021 0.036 0.037 0.048c0.016 0.012 0.036 0.021 0.058 0.026s0.047 0.008 0.074 0.008c0.033 0 0.059-0.005 0.080-0.014s0.037-0.022 0.047-0.038c0.010-0.016 0.016-0.035 0.016-0.055z"></path>
</symbol>
<symbol id="icon-logo3" viewBox="0 0 22 12">
<path fill="#8e8f99" style="fill: var(--color4, #8e8f99)" d="M7.888 10.548c0.003 0 0.007 0.001 0.010 0.002s0.006 0.003 0.008 0.005l0.047 0.044c-0.037 0.036-0.082 0.065-0.133 0.084-0.060 0.021-0.124 0.032-0.189 0.030-0.061 0.001-0.121-0.009-0.177-0.028-0.051-0.018-0.096-0.045-0.134-0.080-0.038-0.036-0.067-0.078-0.086-0.123-0.021-0.051-0.031-0.104-0.030-0.158-0.001-0.054 0.010-0.108 0.033-0.159 0.021-0.046 0.052-0.088 0.092-0.123s0.089-0.062 0.142-0.080c0.058-0.019 0.12-0.029 0.183-0.028 0.058-0.001 0.116 0.008 0.17 0.026 0.047 0.017 0.090 0.041 0.127 0.071l-0.040 0.048c-0.003 0.003-0.006 0.006-0.010 0.009s-0.010 0.004-0.016 0.004c-0.006-0-0.012-0.002-0.017-0.005l-0.021-0.013-0.030-0.016c-0.013-0.006-0.026-0.011-0.040-0.016-0.018-0.005-0.036-0.010-0.054-0.013-0.023-0.004-0.047-0.005-0.070-0.005-0.045-0-0.090 0.007-0.131 0.021-0.039 0.013-0.074 0.034-0.103 0.060-0.029 0.028-0.052 0.060-0.067 0.095-0.017 0.040-0.025 0.083-0.024 0.125-0.001 0.043 0.007 0.086 0.024 0.127 0.014 0.035 0.037 0.067 0.066 0.095 0.027 0.026 0.061 0.046 0.098 0.059 0.039 0.014 0.080 0.021 0.122 0.020 0.024 0 0.048-0.001 0.072-0.004 0.039-0.004 0.076-0.016 0.109-0.034 0.017-0.009 0.032-0.020 0.047-0.031 0.006-0.005 0.014-0.008 0.022-0.008z"></path>
<path fill="#8e8f99" style="fill: var(--color4, #8e8f99)" d="M9.254 10.324c0.001 0.054-0.010 0.107-0.032 0.157-0.019 0.046-0.050 0.087-0.089 0.122s-0.087 0.062-0.14 0.080c-0.116 0.038-0.244 0.038-0.36 0-0.052-0.018-0.1-0.046-0.139-0.080s-0.070-0.077-0.090-0.123c-0.043-0.102-0.043-0.213 0-0.315 0.020-0.046 0.051-0.088 0.090-0.124 0.040-0.034 0.087-0.060 0.139-0.077 0.116-0.038 0.244-0.038 0.36 0 0.053 0.018 0.1 0.046 0.14 0.080s0.069 0.077 0.089 0.122c0.022 0.051 0.033 0.104 0.032 0.158zM9.13 10.324c0.001-0.043-0.007-0.086-0.022-0.126-0.013-0.035-0.035-0.067-0.063-0.094-0.028-0.026-0.062-0.046-0.1-0.060-0.084-0.028-0.177-0.028-0.261 0-0.038 0.013-0.072 0.034-0.1 0.060-0.029 0.027-0.051 0.059-0.064 0.094-0.030 0.082-0.030 0.17 0 0.253 0.013 0.035 0.035 0.067 0.064 0.095 0.028 0.026 0.062 0.046 0.1 0.059 0.084 0.027 0.177 0.027 0.261 0 0.038-0.013 0.072-0.033 0.1-0.059 0.028-0.028 0.050-0.060 0.063-0.095 0.016-0.041 0.023-0.083 0.022-0.126z"></path>
<path fill="#8e8f99" style="fill: var(--color4, #8e8f99)" d="M10.186 10.457l0.012 0.028c0.005-0.010 0.009-0.019 0.014-0.028s0.010-0.019 0.015-0.028l0.302-0.469c0.006-0.008 0.011-0.013 0.017-0.015 0.008-0.002 0.016-0.003 0.025-0.003h0.089v0.764h-0.106v-0.561c0-0.007 0-0.015 0-0.024s-0.001-0.018 0-0.026l-0.304 0.476c-0.004 0.007-0.010 0.013-0.018 0.017s-0.017 0.006-0.026 0.006h-0.017c-0.009 0-0.018-0.002-0.026-0.006s-0.014-0.010-0.018-0.017l-0.313-0.479c0 0.009 0 0.018 0 0.027s0 0.017 0 0.024v0.561h-0.102v-0.762h0.089c0.008-0 0.017 0 0.025 0.003 0.007 0.003 0.013 0.008 0.017 0.015l0.309 0.47c0.006 0.009 0.011 0.018 0.015 0.027z"></path>
<path fill="#8e8f99" style="fill: var(--color4, #8e8f99)" d="M11.324 10.419v0.286h-0.118v-0.763h0.264c0.050-0.001 0.099 0.005 0.147 0.017 0.038 0.009 0.074 0.025 0.104 0.048 0.026 0.021 0.047 0.046 0.059 0.075 0.014 0.031 0.021 0.064 0.020 0.098 0.001 0.033-0.007 0.067-0.022 0.098-0.014 0.029-0.036 0.055-0.064 0.076-0.030 0.023-0.066 0.040-0.105 0.051-0.046 0.013-0.094 0.019-0.143 0.018l-0.143-0.002zM11.324 10.337h0.143c0.031 0 0.062-0.004 0.092-0.012 0.024-0.007 0.047-0.018 0.066-0.033 0.018-0.014 0.032-0.031 0.040-0.051 0.010-0.020 0.015-0.042 0.014-0.064 0.001-0.021-0.003-0.042-0.012-0.062s-0.023-0.037-0.041-0.052c-0.045-0.030-0.102-0.045-0.159-0.041h-0.143v0.314z"></path>
<path fill="#8e8f99" style="fill: var(--color4, #8e8f99)" d="M12.914 10.706h-0.093c-0.009 0-0.019-0.002-0.026-0.007s-0.012-0.011-0.015-0.018l-0.080-0.184h-0.404l-0.083 0.184c-0.003 0.007-0.008 0.013-0.015 0.017s-0.017 0.008-0.027 0.008h-0.093l0.355-0.764h0.123l0.36 0.764zM12.328 10.422h0.334l-0.141-0.311c-0.011-0.023-0.020-0.047-0.027-0.072l-0.014 0.040c-0.004 0.012-0.009 0.023-0.013 0.032l-0.14 0.31z"></path>
<path fill="#8e8f99" style="fill: var(--color4, #8e8f99)" d="M13.425 9.946c0.007 0.003 0.013 0.008 0.018 0.014l0.518 0.576c0-0.009 0-0.018 0-0.027s0-0.017 0-0.025v-0.541h0.106v0.764h-0.059c-0.008 0-0.017-0.001-0.024-0.005s-0.014-0.008-0.019-0.014l-0.517-0.575c0.001 0.009 0.001 0.018 0 0.026s0 0.016 0 0.023v0.544h-0.106v-0.764h0.063c0.007-0 0.015 0.001 0.021 0.004z"></path>
<path fill="#8e8f99" style="fill: var(--color4, #8e8f99)" d="M14.938 10.402v0.303h-0.118v-0.303l-0.327-0.46h0.106c0.009-0 0.018 0.002 0.025 0.007s0.012 0.011 0.016 0.017l0.205 0.297c0.008 0.013 0.015 0.024 0.021 0.035s0.011 0.022 0.015 0.032l0.015-0.033c0.006-0.012 0.012-0.024 0.020-0.035l0.202-0.299c0.004-0.006 0.009-0.011 0.015-0.016 0.007-0.005 0.016-0.008 0.025-0.008h0.107l-0.328 0.462z"></path>
<path fill="#8e8f99" style="fill: var(--color4, #8e8f99)" d="M10.128 8.661c0.051 0.006 0.104 0.010 0.156 0.014 0.798-0.305 1.473-0.804 1.941-1.435s0.708-1.366 0.689-2.113l-0.88-0.752c0.179 0.795 0.095 1.617-0.242 2.374s-0.913 1.419-1.665 1.912z"></path>
<path fill="#8e8f99" style="fill: var(--color4, #8e8f99)" d="M9.814 8.626l0.024 0.004c0.804-0.491 1.416-1.177 1.759-1.969s0.399-1.653 0.163-2.473l-1.253-1.070c0.507 0.88 0.711 1.864 0.588 2.839s-0.566 1.9-1.28 2.668z"></path>
<path fill="#8e8f99" style="fill: var(--color4, #8e8f99)" d="M14.063 6.009c-0.213 0.821-0.73 1.561-1.474 2.11-0.217 0.161-0.452 0.305-0.7 0.43 0.606-0.152 1.163-0.421 1.628-0.786s0.826-0.817 1.054-1.32l-0.508-0.434z"></path>
<path fill="#8e8f99" style="fill: var(--color4, #8e8f99)" d="M13.863 5.888l-0.723-0.618c-0.014 0.705-0.248 1.393-0.679 1.994s-1.042 1.093-1.77 1.423h0.004c0.162-0 0.324-0.008 0.486-0.025 0.681-0.237 1.282-0.615 1.75-1.099s0.789-1.060 0.933-1.676z"></path>
<path fill="#8e8f99" style="fill: var(--color4, #8e8f99)" d="M9.918 2.667l-0.863-0.738c-0.771 0.255-1.435 0.703-1.904 1.285s-0.721 1.272-0.723 1.978v0c0.003 0.781 0.31 1.539 0.874 2.153s1.351 1.051 2.238 1.24c0.792-0.824 1.255-1.842 1.323-2.906s-0.263-2.12-0.945-3.012z"></path>
<path fill="#8e8f99" style="fill: var(--color4, #8e8f99)" d="M15.857 5.775c-0.003-0.926-0.435-1.814-1.202-2.469s-1.806-1.024-2.89-1.027c-0.501-0-0.998 0.079-1.465 0.233l5.284 4.515c0.181-0.399 0.274-0.823 0.273-1.251z"></path>
</symbol>
<symbol id="icon-logo2" viewBox="0 0 22 12">
<path fill="#8e8f99" style="fill: var(--color4, #8e8f99)" d="M10.739 1.272h-0.029c-0.045-0.003-0.090-0.004-0.135-0.005v0h-0.098c-0.085 0-0.172 0.002-0.258 0.007-0.006-0-0.013-0-0.019 0-0.781 0.044-1.546 0.239-2.253 0.575l-0.093 0.045v4.745l0.217-0.074c0.19-0.065 0.393-0.124 0.603-0.179 0.567-0.146 1.149-0.223 1.735-0.23v0.623c-0.078 0.001-0.153 0.003-0.228 0.007h-0.018c-0.45 0.025-0.897 0.093-1.335 0.205-0.554 0.139-1.088 0.347-1.59 0.62v-6.085c0.521-0.304 1.083-0.532 1.668-0.678 0.514-0.133 1.042-0.201 1.572-0.203h0.092c0.11 0.003 0.216 0.008 0.317 0.015 0.264 0.019 0.526 0.060 0.783 0.125v0.614c-0.25-0.058-0.503-0.096-0.759-0.114-0.005-0-0.010-0.001-0.016-0.001-0.053-0.005-0.106-0.009-0.155-0.009zM11.818 1.899c0.136 0.010 0.277 0.015 0.42 0.015 0.558-0.002 1.113-0.073 1.653-0.212 0.553-0.139 1.087-0.347 1.589-0.62v5.977c-0.522 0.304-1.083 0.532-1.669 0.678-0.514 0.132-1.042 0.2-1.572 0.202-0.402 0.003-0.802-0.044-1.193-0.141v-6.015c0.092 0.021 0.187 0.041 0.284 0.057 0.158 0.027 0.325 0.046 0.488 0.058zM14.86 1.945l-0.217 0.073c-0.199 0.067-0.401 0.127-0.603 0.18-0.589 0.151-1.194 0.229-1.801 0.231-0.141 0-0.272-0.004-0.397-0.012l-0.173-0.011v4.881l0.149 0.013c0.138 0.012 0.28 0.018 0.423 0.018 0.479-0.002 0.955-0.064 1.419-0.184 0.382-0.096 0.753-0.229 1.109-0.398l0.093-0.045v-4.746z"></path>
<path fill="#8e8f99" style="fill: var(--color4, #8e8f99)" d="M7.658 9.688c-0.031-0.032-0.069-0.058-0.11-0.075s-0.086-0.025-0.131-0.023c-0.048-0.001-0.095 0.008-0.139 0.026-0.041 0.016-0.077 0.040-0.108 0.071s-0.054 0.068-0.070 0.109c-0.017 0.043-0.025 0.089-0.025 0.135v0.813c-0.002 0.057 0.009 0.114 0.032 0.167 0.019 0.042 0.047 0.079 0.081 0.109 0.033 0.027 0.071 0.047 0.112 0.058 0.040 0.011 0.080 0.017 0.121 0.017 0.045 0 0.090-0.009 0.131-0.028 0.041-0.018 0.077-0.043 0.108-0.075s0.054-0.069 0.071-0.109c0.017-0.041 0.026-0.085 0.026-0.13v-0.091h-0.213v0.072c0.001 0.025-0.004 0.049-0.012 0.072-0.007 0.017-0.017 0.033-0.031 0.046-0.013 0.011-0.028 0.019-0.044 0.023-0.014 0.005-0.029 0.007-0.044 0.008-0.019 0.002-0.038-0.001-0.056-0.008s-0.033-0.020-0.044-0.035c-0.020-0.033-0.030-0.071-0.028-0.109v-0.758c-0.001-0.042 0.008-0.084 0.026-0.122 0.011-0.017 0.027-0.031 0.045-0.040s0.039-0.012 0.059-0.010c0.018-0.001 0.037 0.003 0.053 0.011s0.031 0.020 0.042 0.035c0.024 0.031 0.036 0.070 0.035 0.109v0.070h0.21v-0.083c0-0.049-0.008-0.097-0.026-0.142-0.016-0.043-0.040-0.082-0.071-0.114z"></path>
<path fill="#8e8f99" style="fill: var(--color4, #8e8f99)" d="M8.92 9.679c-0.068-0.057-0.153-0.089-0.242-0.089-0.043 0-0.086 0.008-0.127 0.023s-0.079 0.037-0.112 0.066c-0.035 0.032-0.063 0.070-0.082 0.114-0.021 0.050-0.032 0.103-0.031 0.157v0.78c-0.001 0.055 0.009 0.109 0.031 0.16 0.019 0.042 0.047 0.079 0.082 0.109 0.032 0.030 0.071 0.054 0.112 0.069s0.084 0.023 0.127 0.023c0.043-0 0.086-0.008 0.127-0.023 0.042-0.015 0.081-0.039 0.115-0.069s0.061-0.068 0.080-0.109c0.022-0.050 0.032-0.105 0.031-0.16v-0.78c0.001-0.054-0.009-0.108-0.031-0.157-0.019-0.043-0.046-0.082-0.080-0.114zM8.821 10.73c0.002 0.021-0.001 0.042-0.008 0.061s-0.019 0.037-0.034 0.052c-0.028 0.024-0.063 0.036-0.1 0.036s-0.072-0.013-0.1-0.036c-0.015-0.014-0.027-0.032-0.034-0.052s-0.010-0.040-0.008-0.061v-0.78c-0.002-0.021 0.001-0.042 0.008-0.061s0.019-0.037 0.034-0.052c0.028-0.024 0.063-0.036 0.1-0.036s0.072 0.013 0.1 0.036c0.015 0.014 0.027 0.032 0.034 0.052s0.010 0.040 0.008 0.061v0.78z"></path>
<path fill="#8e8f99" style="fill: var(--color4, #8e8f99)" d="M10.579 11.078v-1.476h-0.204l-0.268 0.781h-0.004l-0.271-0.781h-0.202v1.476h0.211v-0.898h0.004l0.207 0.635h0.105l0.208-0.635h0.004v0.898h0.211z"></path>
<path fill="#8e8f99" style="fill: var(--color4, #8e8f99)" d="M11.777 9.706c-0.032-0.036-0.073-0.064-0.119-0.081-0.049-0.016-0.101-0.024-0.153-0.023h-0.313v1.476h0.21v-0.577h0.108c0.066 0.003 0.131-0.011 0.19-0.040 0.048-0.027 0.088-0.066 0.115-0.113 0.024-0.039 0.041-0.083 0.048-0.129 0.008-0.056 0.012-0.112 0.011-0.168 0.002-0.071-0.005-0.142-0.021-0.211-0.014-0.051-0.041-0.098-0.078-0.136zM11.668 10.156c-0.001 0.027-0.008 0.053-0.020 0.077-0.012 0.023-0.031 0.041-0.054 0.052-0.031 0.014-0.065 0.020-0.099 0.019h-0.096v-0.502h0.108c0.033-0.002 0.065 0.005 0.095 0.019 0.022 0.012 0.039 0.032 0.049 0.054 0.012 0.026 0.018 0.054 0.018 0.082 0 0.031 0 0.064 0 0.098s0.002 0.070 0 0.101h-0.002z"></path>
<path fill="#8e8f99" style="fill: var(--color4, #8e8f99)" d="M12.773 9.602h-0.172l-0.325 1.476h0.21l0.062-0.317h0.287l0.062 0.317h0.21l-0.333-1.476zM12.579 10.56l0.104-0.535h0.004l0.103 0.535h-0.21z"></path>
<path fill="#8e8f99" style="fill: var(--color4, #8e8f99)" d="M14.132 10.492h-0.004l-0.318-0.889h-0.202v1.476h0.21v-0.888h0.004l0.321 0.888h0.198v-1.476h-0.21v0.889z"></path>
<path fill="#8e8f99" style="fill: var(--color4, #8e8f99)" d="M15.417 9.602l-0.169 0.587h-0.004l-0.169-0.587h-0.223l0.289 0.852v0.624h0.21v-0.624l0.289-0.852h-0.223z"></path>
<path fill="#8e8f99" style="fill: var(--color4, #8e8f99)" d="M7.071 11.495h0.101v0.284h0.069v-0.284h0.101v-0.058h-0.271v0.058z"></path>
<path fill="#8e8f99" style="fill: var(--color4, #8e8f99)" d="M7.924 11.437l-0.133 0.343h0.073l0.028-0.078h0.137l0.029 0.078h0.075l-0.136-0.343h-0.073zM7.913 11.644l0.047-0.127 0.047 0.127h-0.093z"></path>
<path fill="#8e8f99" style="fill: var(--color4, #8e8f99)" d="M8.766 11.653h0.079v0.044c-0.023 0.019-0.052 0.029-0.081 0.029-0.014 0.001-0.028-0.002-0.040-0.007s-0.024-0.014-0.032-0.025c-0.018-0.026-0.027-0.058-0.025-0.089 0-0.076 0.033-0.114 0.099-0.114 0.017-0.002 0.035 0.003 0.049 0.013s0.024 0.025 0.029 0.042l0.068-0.013c-0.015-0.067-0.063-0.101-0.145-0.101-0.044-0.001-0.087 0.015-0.12 0.044-0.017 0.017-0.031 0.038-0.039 0.060s-0.012 0.047-0.010 0.071c-0.002 0.047 0.014 0.093 0.044 0.129 0.017 0.017 0.037 0.031 0.060 0.039s0.047 0.012 0.071 0.011c0.054 0.002 0.106-0.018 0.145-0.054v-0.135h-0.149v0.058z"></path>
<path fill="#8e8f99" style="fill: var(--color4, #8e8f99)" d="M9.626 11.437h-0.069v0.343h0.24v-0.058h-0.171v-0.284z"></path>
<path fill="#8e8f99" style="fill: var(--color4, #8e8f99)" d="M10.354 11.437h-0.069v0.343h0.069v-0.343z"></path>
<path fill="#8e8f99" style="fill: var(--color4, #8e8f99)" d="M11.065 11.666l-0.14-0.229h-0.067v0.343h0.064v-0.224l0.138 0.224h0.069v-0.343h-0.063v0.229z"></path>
<path fill="#8e8f99" style="fill: var(--color4, #8e8f99)" d="M11.708 11.629h0.171v-0.058h-0.171v-0.075h0.184v-0.058h-0.253v0.343h0.26v-0.058h-0.191v-0.093z"></path>
<path fill="#8e8f99" style="fill: var(--color4, #8e8f99)" d="M13.267 11.572h-0.135v-0.135h-0.069v0.343h0.069v-0.15h0.135v0.15h0.069v-0.343h-0.069v0.135z"></path>
<path fill="#8e8f99" style="fill: var(--color4, #8e8f99)" d="M13.914 11.629h0.171v-0.058h-0.171v-0.075h0.184v-0.058h-0.253v0.343h0.26v-0.058h-0.191v-0.093z"></path>
<path fill="#8e8f99" style="fill: var(--color4, #8e8f99)" d="M14.791 11.629c0.060-0.009 0.090-0.041 0.090-0.095 0.002-0.015-0-0.029-0.006-0.043s-0.015-0.025-0.027-0.034c-0.031-0.016-0.066-0.023-0.1-0.020h-0.145v0.343h0.069v-0.143h0.014c0.015-0.001 0.029 0.002 0.043 0.008 0.010 0.006 0.018 0.015 0.024 0.025l0.075 0.109h0.082l-0.042-0.067c-0.018-0.033-0.044-0.061-0.076-0.082zM14.721 11.581h-0.051v-0.086h0.054c0.024-0.002 0.047 0.001 0.070 0.008 0.005 0.004 0.009 0.010 0.012 0.016s0.004 0.013 0.003 0.020c-0 0.007-0.002 0.013-0.005 0.019s-0.008 0.011-0.013 0.015c-0.023 0.007-0.046 0.010-0.070 0.008z"></path>
<path fill="#8e8f99" style="fill: var(--color4, #8e8f99)" d="M15.452 11.629h0.171v-0.058h-0.171v-0.075h0.184v-0.058h-0.254v0.343h0.26v-0.058h-0.191v-0.093z"></path>
</symbol>
<symbol id="icon-logo1" viewBox="0 0 22 12">
<path fill="#8e8f99" style="fill: var(--color4, #8e8f99)" d="M8.143 1.5l1.502 1.431-2.787-0.002v6.941h7.286v-2.654l1.5 1.429v-7.145h-7.5zM14.077 7.048l-4.258-4.056h4.258v4.056zM12.755 8.855h-4.745v-4.668h0.335v4.352h4.41v0.316zM8.956 11.156l-0.177-0.364h-0.146l0.256 0.481v0.28h0.132v-0.28l0.256-0.481h-0.145l-0.177 0.364zM9.608 10.792h0.031l0.288 0.762h-0.138l-0.062-0.178h-0.295l-0.062 0.178h-0.138l0.287-0.762h0.088zM9.469 11.272h0.223l-0.112-0.323-0.111 0.323zM10.389 11.145c-0.006-0.007-0.011-0.014-0.017-0.021-0.020-0.026-0.035-0.051-0.046-0.075s-0.016-0.050-0.016-0.075c0-0.040 0.008-0.074 0.025-0.103s0.040-0.051 0.070-0.066c0.030-0.016 0.065-0.024 0.105-0.024 0.039 0 0.072 0.008 0.1 0.024s0.050 0.036 0.065 0.061c0.015 0.025 0.023 0.053 0.023 0.084 0 0.024-0.004 0.046-0.013 0.066s-0.021 0.038-0.036 0.054c-0.015 0.016-0.033 0.032-0.053 0.047l-0.053 0.039 0.151 0.178c0.005-0.010 0.009-0.020 0.014-0.031 0.013-0.033 0.019-0.071 0.019-0.111h0.109c0 0.037-0.004 0.072-0.011 0.105s-0.018 0.064-0.034 0.092c-0.006 0.012-0.014 0.023-0.022 0.034l0.112 0.132h-0.146l-0.044-0.052c-0.024 0.018-0.050 0.032-0.078 0.043-0.037 0.013-0.076 0.020-0.118 0.020-0.051 0-0.094-0.009-0.131-0.028s-0.066-0.044-0.086-0.076c-0.020-0.032-0.030-0.070-0.030-0.111 0-0.031 0.006-0.058 0.019-0.082s0.031-0.046 0.053-0.066c0.021-0.019 0.044-0.037 0.070-0.056zM10.452 11.222l-0.016 0.011c-0.018 0.015-0.032 0.029-0.041 0.043s-0.014 0.026-0.017 0.038c-0.003 0.012-0.004 0.022-0.004 0.030 0 0.022 0.005 0.043 0.014 0.061s0.024 0.033 0.042 0.043c0.019 0.010 0.042 0.016 0.069 0.016 0.029 0 0.057-0.006 0.084-0.019 0.014-0.007 0.027-0.015 0.039-0.024l-0.17-0.199zM10.482 11.083l0.047-0.031c0.022-0.015 0.038-0.029 0.047-0.043s0.014-0.032 0.014-0.053c0-0.018-0.007-0.035-0.021-0.050s-0.034-0.023-0.059-0.023c-0.018 0-0.033 0.004-0.045 0.013s-0.021 0.019-0.028 0.032c-0.006 0.013-0.009 0.028-0.009 0.044s0.004 0.032 0.012 0.049c0.008 0.016 0.019 0.034 0.033 0.052 0.003 0.004 0.006 0.007 0.009 0.011zM11.814 11.306h-0.131c-0.004 0.033-0.012 0.061-0.024 0.084s-0.029 0.040-0.053 0.052c-0.023 0.012-0.053 0.018-0.091 0.018-0.031 0-0.057-0.006-0.079-0.018s-0.040-0.029-0.054-0.052c-0.014-0.022-0.024-0.049-0.031-0.080s-0.010-0.066-0.010-0.105v-0.064c0-0.040 0.004-0.076 0.011-0.108s0.019-0.058 0.034-0.080c0.015-0.022 0.034-0.038 0.056-0.049s0.048-0.017 0.078-0.017c0.037 0 0.066 0.006 0.089 0.019s0.040 0.030 0.051 0.053c0.012 0.023 0.020 0.051 0.023 0.084h0.131c-0.005-0.051-0.020-0.096-0.043-0.135s-0.055-0.070-0.097-0.093c-0.042-0.022-0.093-0.033-0.154-0.033-0.048 0-0.091 0.008-0.129 0.025s-0.071 0.041-0.098 0.073c-0.027 0.031-0.048 0.069-0.063 0.114s-0.021 0.094-0.021 0.149v0.063c0 0.055 0.007 0.104 0.021 0.149s0.035 0.082 0.062 0.114c0.027 0.031 0.059 0.055 0.097 0.072s0.080 0.025 0.127 0.025c0.061 0 0.114-0.011 0.156-0.033s0.076-0.053 0.1-0.092c0.024-0.039 0.038-0.084 0.042-0.133zM12.541 11.194v-0.042c0-0.058-0.008-0.109-0.023-0.154s-0.036-0.085-0.064-0.117c-0.028-0.032-0.061-0.057-0.1-0.074s-0.082-0.026-0.129-0.026c-0.047 0-0.089 0.009-0.128 0.026s-0.072 0.041-0.1 0.074c-0.028 0.032-0.050 0.071-0.065 0.117s-0.023 0.097-0.023 0.154v0.042c0 0.058 0.008 0.109 0.023 0.155s0.038 0.085 0.066 0.117c0.028 0.032 0.062 0.057 0.1 0.074s0.081 0.025 0.128 0.025c0.047 0 0.090-0.008 0.129-0.025s0.072-0.042 0.099-0.074c0.028-0.032 0.049-0.071 0.064-0.117s0.023-0.097 0.023-0.155zM12.41 11.151v0.043c0 0.043-0.004 0.080-0.013 0.113s-0.020 0.061-0.036 0.083c-0.016 0.022-0.035 0.039-0.058 0.051s-0.049 0.017-0.078 0.017c-0.029 0-0.055-0.006-0.077-0.017s-0.042-0.028-0.059-0.051c-0.016-0.023-0.028-0.050-0.037-0.083s-0.013-0.070-0.013-0.113v-0.043c0-0.043 0.004-0.080 0.013-0.112s0.020-0.060 0.036-0.082c0.016-0.022 0.035-0.039 0.058-0.050s0.048-0.017 0.077-0.017 0.055 0.006 0.078 0.017c0.023 0.011 0.042 0.028 0.058 0.050s0.028 0.049 0.036 0.082c0.008 0.032 0.013 0.070 0.013 0.112z"></path>
</symbol>
<symbol id="icon-linkedin" viewBox="0 0 12 12">
<path fill="#f4f4fd" style="fill: var(--color2, #f4f4fd)" d="M11.997 12v-0.001h0.003v-4.401c0-2.153-0.463-3.812-2.98-3.812-1.21 0-2.022 0.664-2.354 1.294h-0.035v-1.093h-2.387v8.012h2.485v-3.967c0-1.045 0.198-2.055 1.491-2.055 1.275 0 1.294 1.192 1.294 2.122v3.901h2.482z"></path>
<path fill="#f4f4fd" style="fill: var(--color2, #f4f4fd)" d="M0.198 3.988h2.488v8.012h-2.488v-8.012z"></path>
<path fill="#f4f4fd" style="fill: var(--color2, #f4f4fd)" d="M1.441-0c-0.795 0-1.441 0.646-1.441 1.441s0.646 1.455 1.441 1.455c0.796 0 1.441-0.659 1.441-1.455s-0.646-1.441-1.441-1.441v0z"></path>
</symbol>
<symbol id="icon-facebook" viewBox="0 0 12 12">
<path fill="#f4f4fd" style="fill: var(--color2, #f4f4fd)" d="M7.999 1.992h1.096v-1.908c-0.189-0.026-0.839-0.085-1.596-0.085-1.579 0-2.661 0.993-2.661 2.819v1.681h-1.743v2.133h1.743v5.367h2.137v-5.367h1.672l0.265-2.133h-1.938v-1.47c0.001-0.617 0.166-1.039 1.026-1.039z"></path>
</symbol>
<symbol id="icon-twitter" viewBox="0 0 12 12">
<path fill="#f4f4fd" style="fill: var(--color2, #f4f4fd)" d="M12 2.279c-0.446 0.196-0.922 0.326-1.418 0.389 0.51-0.304 0.899-0.783 1.082-1.36-0.476 0.284-1.001 0.484-1.56 0.595-0.451-0.481-1.095-0.778-1.797-0.778-1.362 0-2.459 1.105-2.459 2.461 0 0.195 0.017 0.382 0.057 0.561-2.045-0.1-3.855-1.080-5.071-2.573-0.212 0.368-0.337 0.79-0.337 1.244 0 0.852 0.439 1.607 1.093 2.044-0.395-0.007-0.783-0.122-1.111-0.303 0 0.007 0 0.017 0 0.027 0 1.196 0.853 2.188 1.971 2.417-0.2 0.055-0.418 0.081-0.645 0.081-0.157 0-0.316-0.009-0.466-0.042 0.319 0.974 1.223 1.691 2.299 1.714-0.837 0.655-1.9 1.049-3.050 1.049-0.202 0-0.395-0.009-0.589-0.034 1.090 0.703 2.381 1.104 3.774 1.104 4.527 0 7.002-3.75 7.002-7.001 0-0.109-0.004-0.214-0.009-0.318 0.488-0.346 0.899-0.779 1.233-1.277z"></path>
</symbol>
<symbol id="icon-instagram" viewBox="0 0 12 12">
<path fill="#f4f4fd" style="fill: var(--color2, #f4f4fd)" d="M11.988 3.528c-0.028-0.638-0.131-1.076-0.279-1.456-0.152-0.403-0.387-0.764-0.694-1.064-0.3-0.305-0.663-0.542-1.062-0.692-0.382-0.148-0.818-0.251-1.456-0.279-0.642-0.030-0.846-0.038-2.476-0.038s-1.833 0.007-2.473 0.035c-0.638 0.028-1.076 0.131-1.456 0.279-0.403 0.152-0.764 0.387-1.064 0.694-0.305 0.3-0.541 0.663-0.692 1.062-0.148 0.382-0.251 0.818-0.279 1.456-0.030 0.642-0.038 0.846-0.038 2.476s0.007 1.833 0.035 2.473c0.028 0.638 0.131 1.076 0.279 1.456 0.152 0.403 0.389 0.764 0.694 1.064 0.3 0.305 0.663 0.542 1.062 0.692 0.382 0.148 0.818 0.251 1.456 0.279 0.64 0.028 0.844 0.035 2.473 0.035s1.833-0.007 2.473-0.035c0.638-0.028 1.076-0.131 1.456-0.279 0.806-0.312 1.444-0.949 1.756-1.756 0.148-0.382 0.251-0.818 0.279-1.456 0.028-0.64 0.035-0.844 0.035-2.473s-0.002-1.833-0.031-2.473zM10.908 8.427c-0.026 0.586-0.124 0.903-0.206 1.114-0.202 0.523-0.617 0.938-1.139 1.139-0.211 0.082-0.53 0.181-1.114 0.206-0.633 0.028-0.823 0.035-2.424 0.035s-1.793-0.007-2.424-0.035c-0.586-0.026-0.903-0.124-1.113-0.206-0.26-0.096-0.497-0.249-0.689-0.448-0.199-0.195-0.352-0.429-0.448-0.689-0.082-0.211-0.18-0.53-0.206-1.114-0.028-0.633-0.035-0.823-0.035-2.424s0.007-1.793 0.035-2.424c0.026-0.586 0.124-0.903 0.206-1.114 0.096-0.26 0.249-0.497 0.45-0.689 0.194-0.199 0.429-0.352 0.689-0.448 0.211-0.082 0.53-0.18 1.113-0.206 0.633-0.028 0.823-0.035 2.424-0.035 1.603 0 1.793 0.007 2.424 0.035 0.586 0.026 0.903 0.124 1.114 0.206 0.26 0.096 0.497 0.248 0.689 0.448 0.199 0.195 0.352 0.429 0.448 0.689 0.082 0.211 0.18 0.53 0.206 1.114 0.028 0.633 0.035 0.823 0.035 2.424s-0.007 1.789-0.035 2.422z"></path>
<path fill="#f4f4fd" style="fill: var(--color2, #f4f4fd)" d="M6.022 2.918c-1.702 0-3.083 1.381-3.083 3.083s1.381 3.083 3.083 3.083c1.702 0 3.083-1.381 3.083-3.083s-1.381-3.083-3.083-3.083zM6.022 8.001c-1.104 0-2-0.895-2-2s0.896-2 2-2c1.104 0 2 0.895 2 2s-0.895 2-2 2z"></path>
<path fill="#f4f4fd" style="fill: var(--color2, #f4f4fd)" d="M9.947 2.797c0 0.397-0.322 0.72-0.72 0.72s-0.72-0.322-0.72-0.72c0-0.398 0.322-0.72 0.72-0.72s0.72 0.322 0.72 0.72z"></path>
</symbol>
<symbol id="icon-astronaut" viewBox="0 0 12 12">
<path fill="#4d5ae5" style="fill: var(--color5, #4d5ae5)" d="M11.99 1.697c-0.024-0.072-0.086-0.125-0.161-0.136l-0.716-0.104-0.321-0.649c-0.067-0.137-0.291-0.137-0.359 0l-0.321 0.649-0.716 0.104c-0.075 0.011-0.138 0.064-0.162 0.136s-0.004 0.152 0.051 0.205l0.519 0.505-0.122 0.714c-0.013 0.075 0.018 0.151 0.079 0.196s0.143 0.051 0.211 0.015l0.641-0.337 0.641 0.337c0.029 0.015 0.061 0.023 0.093 0.023 0.041 0 0.083-0.013 0.118-0.038 0.062-0.045 0.092-0.121 0.079-0.196l-0.122-0.714 0.519-0.505c0.054-0.053 0.074-0.133 0.051-0.205zM11.067 2.194c-0.047 0.046-0.069 0.112-0.057 0.177l0.072 0.418-0.375-0.197c-0.029-0.015-0.061-0.023-0.093-0.023s-0.064 0.008-0.093 0.023l-0.375 0.197 0.072-0.418c0.011-0.065-0.010-0.131-0.057-0.177l-0.304-0.296 0.42-0.061c0.065-0.009 0.121-0.050 0.151-0.109l0.188-0.38 0.188 0.38c0.029 0.059 0.085 0.1 0.151 0.109l0.42 0.061-0.303 0.296z"></path>
<path fill="#4d5ae5" style="fill: var(--color5, #4d5ae5)" d="M9.8 7.696h-0.4v0.4h0.4v-0.4z"></path>
<path fill="#4d5ae5" style="fill: var(--color5, #4d5ae5)" d="M9.8 8.496h-0.4v0.4h0.4v-0.4z"></path>
<path fill="#4d5ae5" style="fill: var(--color5, #4d5ae5)" d="M10.2 8.096h-0.4v0.4h0.4v-0.4z"></path>
<path fill="#4d5ae5" style="fill: var(--color5, #4d5ae5)" d="M9.4 8.096h-0.4v0.4h0.4v-0.4z"></path>
<path fill="#4d5ae5" style="fill: var(--color5, #4d5ae5)" d="M8.4 9.896h-0.4v0.4h0.4v-0.4z"></path>
<path fill="#4d5ae5" style="fill: var(--color5, #4d5ae5)" d="M8.4 10.696h-0.4v0.4h0.4v-0.4z"></path>
<path fill="#4d5ae5" style="fill: var(--color5, #4d5ae5)" d="M8.8 10.296h-0.4v0.4h0.4v-0.4z"></path>
<path fill="#4d5ae5" style="fill: var(--color5, #4d5ae5)" d="M8 10.296h-0.4v0.4h0.4v-0.4z"></path>
<path fill="#4d5ae5" style="fill: var(--color5, #4d5ae5)" d="M6 9.096h-0.4v0.4h0.4v-0.4z"></path>
<path fill="#4d5ae5" style="fill: var(--color5, #4d5ae5)" d="M6 9.896h-0.4v0.4h0.4v-0.4z"></path>
<path fill="#4d5ae5" style="fill: var(--color5, #4d5ae5)" d="M6.4 9.496h-0.4v0.4h0.4v-0.4z"></path>
<path fill="#4d5ae5" style="fill: var(--color5, #4d5ae5)" d="M5.6 9.496h-0.4v0.4h0.4v-0.4z"></path>
<path fill="#4d5ae5" style="fill: var(--color5, #4d5ae5)" d="M2.2 2.296h-0.4v0.4h0.4v-0.4z"></path>
<path fill="#4d5ae5" style="fill: var(--color5, #4d5ae5)" d="M2.2 3.096h-0.4v0.4h0.4v-0.4z"></path>
<path fill="#4d5ae5" style="fill: var(--color5, #4d5ae5)" d="M2.6 2.696h-0.4v0.4h0.4v-0.4z"></path>
<path fill="#4d5ae5" style="fill: var(--color5, #4d5ae5)" d="M1.8 2.696h-0.4v0.4h0.4v-0.4z"></path>
<path fill="#2e2f42" style="fill: var(--color6, #2e2f42)" d="M9.268 5.31c-0.108-0.145-0.266-0.239-0.446-0.264s-0.358 0.022-0.502 0.132l-0.47 0.36-0.712 0.531-0.509-0.203c0.908-0.407 1.543-1.316 1.543-2.37 0-1.434-1.171-2.6-2.61-2.6s-2.61 1.166-2.61 2.6c0 0.52 0.155 1.003 0.42 1.409l-1.036-0.009c-0.001 0-0.001 0-0.002 0-0.003 0-0.006 0.002-0.009 0.002-0.020 0.001-0.039 0.005-0.058 0.012-0.005 0.002-0.010 0.003-0.014 0.005-0.002 0.001-0.005 0.001-0.007 0.002l-1.212 0.599c-0 0-0 0-0 0l-0.71 0.341c-0.008 0.003-0.016 0.008-0.024 0.013-0.283 0.188-0.379 0.558-0.224 0.861 0.083 0.161 0.223 0.279 0.396 0.333 0.067 0.021 0.135 0.031 0.202 0.031 0.109 0 0.216-0.027 0.315-0.079l0.52-0.277 0.849-0.438 0.509-0.003-2.041 2.031c-0 0-0 0-0.001 0l-0.502 0.5c-0.119 0.118-0.184 0.275-0.184 0.442s0.065 0.324 0.184 0.442c0.122 0.121 0.282 0.182 0.442 0.182s0.32-0.061 0.443-0.182l0.493-0.491 0.653-0.487 0.338 0.336-0.661 0.658c-0 0-0 0-0.001 0l-0.502 0.5c-0.119 0.118-0.184 0.275-0.184 0.442s0.065 0.324 0.184 0.442c0.122 0.121 0.282 0.182 0.442 0.182s0.321-0.061 0.443-0.182l1.306-1.3c0-0 0-0 0-0.001l0.379-0.375-0.001-0.001c0.002-0.002 0.006-0.003 0.008-0.006l1.937-2.122 1.302 0.185c0.009 0.001 0.019 0.002 0.028 0.002 0.024 0 0.048-0.006 0.070-0.014 0.007-0.002 0.012-0.006 0.019-0.009s0.015-0.006 0.022-0.010l1.205-0.8c0.004-0.003 0.007-0.008 0.011-0.011s0.011-0.005 0.015-0.010l0.477-0.447c0.248-0.232 0.282-0.613 0.079-0.886zM0.799 6.664c-0.065 0.035-0.139 0.042-0.209 0.019s-0.127-0.070-0.16-0.134c-0.060-0.118-0.025-0.261 0.080-0.338l0.493-0.237 0.168 0.492-0.372 0.198zM2.11 5.978l-0.581 0.3-0.165-0.481 0.76-0.375-0.015 0.556zM7.773 3.496c0 0.344-0.082 0.669-0.225 0.96l-1.568-0.712c-0.016-0.215-0.128-0.403-0.296-0.52l0.549-1.823c0.892 0.284 1.539 1.115 1.539 2.095zM3.352 3.496c0-1.213 0.992-2.2 2.21-2.2 0.095 0 0.188 0.008 0.279 0.020l-0.537 1.783c-0.007-0-0.014-0.002-0.021-0.002-0.387 0-0.702 0.314-0.702 0.7s0.315 0.7 0.702 0.7c0.26 0 0.485-0.144 0.607-0.354l1.448 0.658c-0.403 0.542-1.048 0.896-1.776 0.896-1.219 0-2.21-0.987-2.21-2.2zM5.585 3.796c0 0.165-0.136 0.3-0.302 0.3s-0.302-0.135-0.302-0.3c0-0.165 0.136-0.3 0.302-0.3s0.302 0.135 0.302 0.3zM0.924 9.43c-0.089 0.088-0.232 0.088-0.32 0-0.043-0.043-0.066-0.099-0.066-0.159s0.023-0.116 0.066-0.158l0.361-0.359 0.319 0.318-0.36 0.358zM2.13 10.83c-0.089 0.088-0.232 0.088-0.321 0-0.043-0.043-0.066-0.099-0.066-0.159s0.023-0.116 0.066-0.158l0.361-0.36 0.319 0.318-0.36 0.358zM3.435 9.529c-0 0-0 0-0.001 0l-0.662 0.66-0.319-0.318 0.661-0.658c0 0 0 0 0-0s0-0 0.001-0c0.015-0.015 0.024-0.033 0.034-0.051 0.003-0.005 0.008-0.010 0.010-0.015 0.006-0.015 0.007-0.032 0.010-0.048 0.001-0.009 0.005-0.018 0.005-0.027 0-0.013-0.005-0.026-0.008-0.040-0.002-0.012-0.002-0.024-0.007-0.036-0.008-0.019-0.021-0.035-0.034-0.052-0.004-0.004-0.005-0.010-0.009-0.014 0 0 0 0-0 0s-0-0.001-0-0.001l-0.603-0.6c-0.006-0.006-0.015-0.009-0.022-0.014-0.011-0.008-0.021-0.016-0.033-0.022s-0.023-0.009-0.035-0.012c-0.013-0.004-0.025-0.006-0.039-0.007-0.012-0.001-0.024 0-0.036 0.002-0.013 0.002-0.026 0.003-0.039 0.008s-0.024 0.010-0.035 0.017c-0.007 0.004-0.016 0.006-0.023 0.011l-0.665 0.496-0.338-0.336 0.9-0.895 1.635 1.608-0.348 0.345zM5.992 6.898c-0.006-0.001-0.011 0.001-0.017 0.001-0.015-0.001-0.029 0-0.043 0.003-0.011 0.002-0.022 0.004-0.033 0.008-0.013 0.004-0.024 0.010-0.036 0.018s-0.021 0.014-0.031 0.023c-0.005 0.004-0.011 0.006-0.015 0.011l-1.762 1.93-1.623-1.596 1.062-1.057c0.078-0.078 0.079-0.205 0.001-0.283-0.039-0.039-0.091-0.059-0.143-0.059v-0l-0.832 0.005 0.010-0.603 1.164 0.010c0.474 0.485 1.136 0.788 1.868 0.788 0.164 0 0.324-0.017 0.48-0.046 0.015 0.012 0.030 0.024 0.049 0.032l0.904 0.36 0.057 0.284 0.067 0.332-1.126-0.16zM7.508 6.965l-0.117-0.584 0.542-0.405 0.355 0.471-0.78 0.518zM8.915 5.903l-0.314 0.294-0.349-0.464 0.312-0.239c0.058-0.045 0.132-0.063 0.204-0.054s0.136 0.048 0.18 0.107c0.081 0.109 0.067 0.262-0.032 0.355z"></path>
<path fill="#2e2f42" style="fill: var(--color6, #2e2f42)" d="M5.101 6.954l-0.804-0.8c-0.078-0.078-0.204-0.078-0.282 0l-0.803 0.8c-0.038 0.038-0.059 0.089-0.059 0.142s0.021 0.104 0.059 0.142l0.803 0.8c0.039 0.039 0.090 0.058 0.141 0.058s0.102-0.019 0.141-0.058l0.804-0.8c0.038-0.038 0.059-0.089 0.059-0.142s-0.021-0.104-0.059-0.142zM4.156 7.614l-0.52-0.518 0.52-0.518 0.52 0.518-0.52 0.518z"></path>
<path fill="#2e2f42" style="fill: var(--color6, #2e2f42)" d="M6.437 1.902l-0.097 0.388c0.027 0.007 0.652 0.169 0.652 0.806h0.4c-0-0.756-0.625-1.112-0.955-1.194z"></path>
<path fill="#2e2f42" style="fill: var(--color6, #2e2f42)" d="M7.392 3.496h-0.4v0.4h0.4v-0.4z"></path>
</symbol>
<symbol id="icon-diagram" viewBox="0 0 12 12">
<path fill="#4d5ae5" style="fill: var(--color5, #4d5ae5)" d="M5.597 5.612h0.4v1.799h-0.4v-1.799z"></path>
<path fill="#4d5ae5" style="fill: var(--color5, #4d5ae5)" d="M7.196 6.411h0.4v0.999h-0.4v-0.999z"></path>
<path fill="#4d5ae5" style="fill: var(--color5, #4d5ae5)" d="M3.998 7.011h0.4v0.4h-0.4v-0.4z"></path>
<path fill="#4d5ae5" style="fill: var(--color5, #4d5ae5)" d="M2.799 6.811h0.4v0.6h-0.4v-0.6z"></path>
<path fill="#2e2f42" style="fill: var(--color6, #2e2f42)" d="M0.6 10.609h9.595c0.331 0 0.6-0.269 0.6-0.6v-0.8c0-0.331-0.269-0.6-0.6-0.6h-0.2v-4.985l1.135-1.076c0.264 0.13 0.583 0.051 0.755-0.187s0.148-0.566-0.057-0.776-0.533-0.241-0.774-0.074c-0.242 0.167-0.328 0.484-0.203 0.751l-0.856 0.811v-0.461c0-0.331-0.269-0.6-0.6-0.6h-7.996c-0.331 0-0.6 0.268-0.6 0.6v5.997h-0.2c-0.331 0-0.6 0.269-0.6 0.6v0.8c0 0.331 0.269 0.6 0.6 0.6zM11.394 1.814c0.11 0 0.2 0.089 0.2 0.2s-0.090 0.2-0.2 0.2c-0.11 0-0.2-0.090-0.2-0.2s0.089-0.2 0.2-0.2zM1.199 2.613c0-0.11 0.090-0.2 0.2-0.2h7.996c0.11 0 0.2 0.090 0.2 0.2v0.839l-0.4 0.38v-0.82c0-0.11-0.090-0.2-0.2-0.2h-7.196c-0.11 0-0.2 0.090-0.2 0.2v4.997c0 0.11 0.090 0.2 0.2 0.2h7.196c0.11 0 0.2-0.089 0.2-0.2v-3.628l0.4-0.379v4.606h-8.396v-5.997zM2.998 5.212c-0.27-0.001-0.508 0.179-0.58 0.44s0.039 0.537 0.272 0.675c0.232 0.138 0.529 0.103 0.723-0.085l0.695 0.349c0.081 0.040 0.179 0.021 0.239-0.046l1.477-1.662 1.452 1.088c0.078 0.058 0.187 0.052 0.257-0.015l1.262-1.195v3.049h-6.796v-4.598h6.796v0.998l-1.414 1.339-1.464-1.098c-0.083-0.062-0.2-0.051-0.269 0.027l-1.497 1.685-0.56-0.28c0.004-0.024 0.007-0.048 0.008-0.073 0-0.331-0.269-0.6-0.6-0.6zM3.198 5.812c0 0.11-0.089 0.2-0.2 0.2s-0.2-0.090-0.2-0.2c0-0.11 0.090-0.2 0.2-0.2s0.2 0.090 0.2 0.2zM4.398 9.010h1.999v0.2c0 0.11-0.090 0.2-0.2 0.2h-1.599c-0.11 0-0.2-0.090-0.2-0.2v-0.2zM0.4 9.21c0-0.11 0.090-0.2 0.2-0.2h3.398v0.2c0 0.331 0.268 0.6 0.6 0.6h1.599c0.331 0 0.6-0.269 0.6-0.6v-0.2h3.398c0.11 0 0.2 0.089 0.2 0.2v0.8c0 0.11-0.089 0.2-0.2 0.2h-9.595c-0.11 0-0.2-0.089-0.2-0.2v-0.8z"></path>
</symbol>
<symbol id="icon-antenna" viewBox="0 0 12 12">
<path fill="#2e2f42" style="fill: var(--color6, #2e2f42)" d="M11.54 8.287l-3.166-3.189 0.351-1.731c0.091 0.035 0.187 0.054 0.284 0.055h0.002c0.447 0.005 0.814-0.353 0.819-0.8s-0.353-0.814-0.8-0.819c-0.447-0.005-0.814 0.353-0.819 0.8-0.001 0.096 0.015 0.191 0.047 0.281l-1.86 0.227-3.034-3.050c-0.037-0.038-0.088-0.060-0.141-0.060s-0.103 0.021-0.14 0.058l-0.567 0.564c-0.078 0.078-0.078 0.205 0 0.283l0.305 0.31c-1.182 2.174-0.798 4.867 0.945 6.624 0.016 0.015 0.035 0.028 0.055 0.037-0.013 0.068-0.019 0.136-0.020 0.205v2.32h-2.4c-0.552 0.001-0.999 0.448-1 1v0.4c0 0.11 0.090 0.2 0.2 0.2h9.2c0.11 0 0.2-0.090 0.2-0.2v-0.4c-0.001-0.552-0.448-0.999-1-1h-2.4v-1.028c0.376 0.079 0.759 0.119 1.143 0.12 0.922-0.001 1.829-0.231 2.64-0.669l0.307 0.309c0.037 0.038 0.088 0.060 0.141 0.060s0.103-0.021 0.14-0.058l0.567-0.564c0.078-0.078 0.078-0.205 0-0.283zM8.73 2.337c0.157-0.156 0.41-0.155 0.566 0.002s0.155 0.41-0.002 0.566c-0.075 0.075-0.176 0.116-0.282 0.116h-0.001c-0.221-0.001-0.399-0.181-0.398-0.402 0.001-0.106 0.043-0.207 0.118-0.282h-0.001zM8.259 3.652l-0.224 1.105-0.441-0.443 0.665-0.661zM8.032 3.313l-0.72 0.716-0.557-0.56 1.277-0.156zM9.002 10.8c0.331 0 0.6 0.269 0.6 0.6v0.2h-8.8v-0.2c0-0.331 0.269-0.6 0.6-0.6h7.6zM6.202 10v0.4h-2v-0.4h2zM4.202 9.6v-1.52c0-0.485 0.449-0.88 1-0.88s1 0.395 1 0.88v1.52h-2zM6.602 8.964v-0.884c0-0.706-0.628-1.28-1.4-1.28-0.499-0.008-0.966 0.246-1.23 0.67-1.522-1.603-1.864-3.992-0.854-5.958l6.976 7.016c-1.077 0.548-2.312 0.702-3.491 0.436zM10.835 8.708l-7.896-7.943 0.283-0.282 2.976 2.992c0.001 0 0.002 0.003 0.004 0.004l4.918 4.947-0.284 0.282z"></path>
<path fill="#4d5ae5" style="fill: var(--color5, #4d5ae5)" d="M5.203 7.6h-0.002c-0.331-0.001-0.6 0.268-0.601 0.599s0.268 0.6 0.599 0.601h0.002c0.331 0.001 0.6-0.268 0.601-0.599s-0.268-0.6-0.599-0.601zM5.343 8.342c-0.038 0.037-0.089 0.058-0.142 0.058-0.11-0.001-0.2-0.091-0.199-0.201 0-0.053 0.021-0.103 0.059-0.141s0.088-0.058 0.14-0.058c0.11 0.001 0.2 0.091 0.199 0.201-0 0.053-0.021 0.103-0.059 0.141h0.002z"></path>
</symbol>
<symbol id="icon-clock" viewBox="0 0 12 12">
<path fill="#2e2f42" style="fill: var(--color6, #2e2f42)" d="M11.736 5.738c-0.001-3.17-2.571-5.739-5.74-5.738s-5.739 2.571-5.738 5.74c0.001 2.497 1.615 4.707 3.994 5.466 0.023 0.007 0.046 0.011 0.070 0.011 0.045-0 0.090-0.012 0.128-0.035 0.051-0.030 0.088-0.078 0.106-0.134l1.449-4.594c0.396-0.002 0.716-0.325 0.714-0.721s-0.325-0.716-0.721-0.714c-0.107 0-0.212 0.025-0.308 0.072l-1.915-1.915c-0.095-0.092-0.246-0.089-0.338 0.006-0.090 0.093-0.090 0.24 0 0.332l1.914 1.916c-0.147 0.3-0.063 0.662 0.201 0.866l-1.381 4.377c-2.729-1.005-4.127-4.033-3.121-6.762s4.033-4.127 6.762-3.121c2.729 1.005 4.127 4.033 3.121 6.762-0.491 1.333-1.5 2.412-2.798 2.99l-0.149-0.703c-0.027-0.129-0.154-0.212-0.283-0.184-0.041 0.009-0.079 0.028-0.11 0.056l-1.439 1.285c-0.099 0.088-0.107 0.239-0.020 0.338 0.029 0.032 0.065 0.056 0.106 0.069l1.837 0.586c0.126 0.040 0.26-0.029 0.301-0.155 0.013-0.040 0.015-0.082 0.006-0.123l-0.147-0.69c2.124-0.895 3.503-2.978 3.498-5.283zM5.997 5.499c0.132 0 0.239 0.107 0.239 0.239s-0.107 0.239-0.239 0.239c-0.132 0-0.239-0.107-0.239-0.239s0.107-0.239 0.239-0.239zM6.785 11.073l0.819-0.731 0.226 1.065-1.045-0.335z"></path>
<path fill="#4d5ae5" style="fill: var(--color5, #4d5ae5)" d="M5.758 1.194v0.478c0 0.132 0.107 0.239 0.239 0.239s0.239-0.107 0.239-0.239v-0.478c0-0.132-0.107-0.239-0.239-0.239s-0.239 0.107-0.239 0.239z"></path>
<path fill="#4d5ae5" style="fill: var(--color5, #4d5ae5)" d="M1.453 5.499c-0.132 0-0.239 0.107-0.239 0.239s0.107 0.239 0.239 0.239h0.478c0.132 0 0.239-0.107 0.239-0.239s-0.107-0.239-0.239-0.239h-0.478z"></path>
<path fill="#4d5ae5" style="fill: var(--color5, #4d5ae5)" d="M10.541 5.977c0.132 0 0.239-0.107 0.239-0.239s-0.107-0.239-0.239-0.239h-0.478c-0.132 0-0.239 0.107-0.239 0.239s0.107 0.239 0.239 0.239h0.478z"></path>
</symbol>
<symbol id="menu-btn" viewBox="0 0 32 22">
<path fill="#4d5ae5" d="M1.34766 20.0431H30.8861M1.34766 10.7354H30.8861M1.34766 1.42773H30.8861" stroke="#2E2F42" stroke-width="3" stroke-linecap="round" stroke-linejoin="round"/>
</symbol>
<symbol id="icon-close" viewBox="0 0 8 8">
<path="M8 0.805714L7.19429 0L4 3.19429L0.805714 0L0 0.805714L3.19429 4L0 7.19429L0.805714 8L4 4.80571L7.19429 8L8 7.19429L4.80571 4L8 0.805714Z" fill="#2E2F42"/>
</symbol>
</defs>
</svg>
